<?xml version="1.0" encoding="utf-8"?>
<!-- Generator: Adobe Illustrator 28.0.0, SVG Export Plug-In . SVG Version: 6.00 Build 0)  -->
<svg version="1.1" id="Layer_1" xmlns="http://www.w3.org/2000/svg" xmlns:xlink="http://www.w3.org/1999/xlink" x="0px" y="0px"
	 viewBox="0 0 983 983" style="enable-background:new 0 0 983 983;" xml:space="preserve">
<style type="text/css">
	.st0{fill:#282C35;}
	.st1{clip-path:url(#SVGID_00000153681118893474252570000009600921068472700043_);}
	.st2{fill:none;stroke:#46A9EC;stroke-width:3.649;stroke-miterlimit:10;}
	.st3{fill:#DFB46E;}
</style>
<g id="Layer_1_00000169520227001630883650000014192877627639782317_">
	<g>
		<g>
			<circle class="st0" cx="491.5" cy="491.5" r="470"/>
		</g>
		<g>
			<g>
				<defs>
					<circle id="SVGID_1_" cx="495.2" cy="491.5" r="424"/>
				</defs>
				<clipPath id="SVGID_00000091007284148442646570000015918041201345764507_">
					<use xlink:href="#SVGID_1_"  style="overflow:visible;"/>
				</clipPath>
				<g style="clip-path:url(#SVGID_00000091007284148442646570000015918041201345764507_);">
					<line class="st2" x1="1050.9" y1="-927" x2="-696.9" y2="820.9"/>
					<line class="st2" x1="1067.3" y1="-910.6" x2="-680.5" y2="837.3"/>
					<line class="st2" x1="1083.7" y1="-894.1" x2="-664.1" y2="853.7"/>
					<line class="st2" x1="1100.2" y1="-877.7" x2="-647.7" y2="870.1"/>
					<line class="st2" x1="1116.6" y1="-861.3" x2="-631.3" y2="886.6"/>
					<line class="st2" x1="1133" y1="-844.9" x2="-614.8" y2="903"/>
					<line class="st2" x1="1149.4" y1="-828.4" x2="-598.4" y2="919.4"/>
					<line class="st2" x1="1165.8" y1="-812" x2="-582" y2="935.8"/>
					<line class="st2" x1="1182.3" y1="-795.6" x2="-565.6" y2="952.2"/>
					<line class="st2" x1="1198.7" y1="-779.2" x2="-549.2" y2="968.7"/>
					<line class="st2" x1="1215.1" y1="-762.8" x2="-532.7" y2="985.1"/>
					<line class="st2" x1="1231.5" y1="-746.3" x2="-516.3" y2="1001.5"/>
					<line class="st2" x1="1247.9" y1="-729.9" x2="-499.9" y2="1017.9"/>
					<line class="st2" x1="1264.4" y1="-713.5" x2="-483.5" y2="1034.3"/>
					<line class="st2" x1="1280.8" y1="-697.1" x2="-467.1" y2="1050.8"/>
					<line class="st2" x1="1297.2" y1="-680.7" x2="-450.6" y2="1067.2"/>
					<line class="st2" x1="1313.6" y1="-664.2" x2="-434.2" y2="1083.6"/>
					<line class="st2" x1="1330.1" y1="-647.8" x2="-417.8" y2="1100"/>
					<line class="st2" x1="1346.5" y1="-631.4" x2="-401.4" y2="1116.4"/>
					<line class="st2" x1="1362.9" y1="-615" x2="-385" y2="1132.9"/>
					<line class="st2" x1="1379.3" y1="-598.6" x2="-368.5" y2="1149.3"/>
					<line class="st2" x1="1395.7" y1="-582.1" x2="-352.1" y2="1165.7"/>
					<line class="st2" x1="1412.2" y1="-565.7" x2="-335.7" y2="1182.1"/>
					<line class="st2" x1="1428.6" y1="-549.3" x2="-319.3" y2="1198.5"/>
					<line class="st2" x1="1445" y1="-532.9" x2="-302.9" y2="1215"/>
					<line class="st2" x1="1461.4" y1="-516.5" x2="-286.4" y2="1231.4"/>
					<line class="st2" x1="1477.8" y1="-500" x2="-270" y2="1247.8"/>
					<line class="st2" x1="1494.3" y1="-483.6" x2="-253.6" y2="1264.2"/>
					<line class="st2" x1="1510.7" y1="-467.2" x2="-237.2" y2="1280.6"/>
					<line class="st2" x1="1527.1" y1="-450.8" x2="-220.8" y2="1297.1"/>
					<line class="st2" x1="1543.5" y1="-434.4" x2="-204.3" y2="1313.5"/>
					<line class="st2" x1="1559.9" y1="-417.9" x2="-187.9" y2="1329.9"/>
					<line class="st2" x1="1576.4" y1="-401.5" x2="-171.5" y2="1346.3"/>
					<line class="st2" x1="1592.8" y1="-385.1" x2="-155.1" y2="1362.7"/>
					<line class="st2" x1="1609.2" y1="-368.7" x2="-138.7" y2="1379.2"/>
					<line class="st2" x1="1625.6" y1="-352.3" x2="-122.2" y2="1395.6"/>
					<line class="st2" x1="1642" y1="-335.8" x2="-105.8" y2="1412"/>
					<line class="st2" x1="1658.5" y1="-319.4" x2="-89.4" y2="1428.4"/>
					<line class="st2" x1="1674.9" y1="-303" x2="-73" y2="1444.9"/>
					<line class="st2" x1="1691.3" y1="-286.6" x2="-56.6" y2="1461.3"/>
					<line class="st2" x1="1707.7" y1="-270.2" x2="-40.1" y2="1477.7"/>
					<line class="st2" x1="1724.1" y1="-253.7" x2="-23.7" y2="1494.1"/>
					<line class="st2" x1="1740.6" y1="-237.3" x2="-7.3" y2="1510.5"/>
					<line class="st2" x1="1757" y1="-220.9" x2="9.1" y2="1527"/>
					<line class="st2" x1="1773.4" y1="-204.5" x2="25.5" y2="1543.4"/>
					<line class="st2" x1="1789.8" y1="-188.1" x2="42" y2="1559.8"/>
					<line class="st2" x1="1806.2" y1="-171.6" x2="58.4" y2="1576.2"/>
					<line class="st2" x1="1822.7" y1="-155.2" x2="74.8" y2="1592.6"/>
					<line class="st2" x1="1839.1" y1="-138.8" x2="91.2" y2="1609.1"/>
					<line class="st2" x1="1855.5" y1="-122.4" x2="107.7" y2="1625.5"/>
					<line class="st2" x1="1871.9" y1="-106" x2="124.1" y2="1641.9"/>
					<line class="st2" x1="1888.3" y1="-89.5" x2="140.5" y2="1658.3"/>
					<line class="st2" x1="1904.8" y1="-73.1" x2="156.9" y2="1674.7"/>
					<line class="st2" x1="1921.2" y1="-56.7" x2="173.3" y2="1691.2"/>
				</g>
			</g>
		</g>
	</g>
</g>
<g id="Capa_1">
	<g>
		<path class="st0" d="M755.9,279.1c-1.7-6.4-4.2-12.4-7.4-17.9c-4.8-8.3-11.2-15.5-18.7-21.3c-7.5-5.8-16.3-10.2-25.9-12.7
			c-33.5-9-67.9-13.6-102.2-13.6c-33.9,0-67.9,4.4-100.9,13.2l0,0c-51.4,13.7-99.3,37.7-140.8,70.2c-7.9-1.1-15.8-1.7-23.6-1.7
			c-21.9,0-43.7,4.2-64,12.6c-20.4,8.3-39.4,20.7-55.6,36.9l-55.6,55.6l0,0c-7.1,7.1-12.6,15.6-16.1,24.4
			c-3.6,8.9-5.3,18.1-5.3,27.4c0,9.2,1.7,18.5,5.3,27.4c3.5,8.9,9,17.3,16.1,24.4l31.6,31.6l-9.1,9.1c-7.1,7.1-12.6,15.6-16.1,24.4
			c-3.6,8.9-5.3,18.1-5.3,27.4c0,9.2,1.7,18.5,5.3,27.4c3.5,8.9,9,17.3,16.1,24.4c7.1,7.1,15.6,12.6,24.4,16.1
			c5.4,2.2,10.9,3.6,16.5,4.5l0.1,16.5l0-0.4c0,5.2,0.6,10.4,1.6,15.2c1.6,7.3,4.2,14,7.5,20.1c3.4,6.1,7.5,11.6,12.4,16.4
			c6.5,6.5,14.4,11.9,23,15.5c8.6,3.7,17.8,5.7,26.8,5.9l0.8,0l3.4,0c0,0.7-0.1,1.5-0.1,2.2c0,10,2,19.5,5.6,28.2
			c3.6,8.7,8.9,16.7,15.9,23.7c6.6,6.6,14.6,12.1,23.5,15.8c8.8,3.7,18.6,5.7,28.4,5.7c10,0,19.5-2,28.2-5.6
			c8.7-3.6,16.7-8.9,23.7-15.9c4.4-4.5,8.2-9.3,11.3-14.5c3.8-2.3,7.4-4.9,10.8-7.8l31.7,31.7c7.1,7.1,15.6,12.6,24.4,16.1
			c8.9,3.6,18.1,5.3,27.4,5.3c9.2,0,18.5-1.7,27.4-5.3c8.9-3.5,17.3-9,24.4-16.1l0,0l55.6-55.6l-0.1,0.1
			c16.3-16.2,28.8-35.2,37.1-55.6c8.4-20.4,12.6-42.2,12.6-64.1c0-7.9-0.5-15.7-1.7-23.6c32.5-41.5,56.5-89.4,70.2-140.8l0,0
			c8.8-33,13.2-67,13.2-100.9C769.5,346.9,764.9,312.5,755.9,279.1z"/>
	</g>
	<g>
		<g>
			<g>
				<path class="st3" d="M563.1,419.9c-39.5-39.5-103.7-39.5-143.2,0c-13.9,13.9-22.9,30.9-27,48.7c-0.2,0.6-0.3,1.3-0.4,1.9
					c-6.8,32.4,2.3,67.4,27.4,92.5c39.5,39.5,103.7,39.5,143.2,0C602.6,523.6,602.6,459.4,563.1,419.9z M418.7,460.9
					c3.8-9.2,9.5-17.8,17-25.3c30.8-30.8,80.9-30.8,111.7,0c18.8,18.8,26.1,44.9,21.9,69.4h-86.4v-33c0-6.1-5-11.1-11.1-11.1H418.7z
					 M435.7,547.4c-17.5-17.5-25.1-41.3-22.6-64.2h47.6v33c0,6.1,5,11.1,11.1,11.1H562c-3.7,7.2-8.5,14-14.6,20.1
					C516.6,578.2,466.5,578.2,435.7,547.4z"/>
			</g>
		</g>
		<g>
			<g>
				<path class="st3" d="M618,607.1c37.2-39.7,64.2-88.1,78.2-140.8C711.1,410.2,711,351,695.8,295c-1-3.8-4-6.8-7.8-7.8
					c-56-15.2-115.2-15.3-171.3-0.4c-52.7,14-101.1,41-140.8,78.2c-39.4-15.7-84.8-6.7-115.2,23.7l-55.6,55.6
					c-4.3,4.3-4.3,11.4,0,15.7l115.6,115.6c-22,25.4-34.3,58.4-34,92.1l0.1,17.4c0,3,1.3,5.8,3.3,7.8s4.7,3.2,7.8,3.3l17.4,0.1
					c33.7,0.2,66.7-12.1,92.1-34l24.3,24.3l-40.6,40.6c-4.3,4.3-4.3,11.4,0,15.7s11.4,4.3,15.7,0l40.6-40.6l75.5,75.5
					c4.3,4.3,11.4,4.3,15.7,0l55.6-55.6C624.7,691.9,633.7,646.5,618,607.1z M675.9,307.1c9.9,39.6,11.5,80.2,5.6,119.6L556.4,301.4
					C595.7,295.6,636.3,297.2,675.9,307.1z M228.7,452.2l47.7-47.7c21.6-21.6,52.9-29.6,81.7-21.9l-91.7,91.7
					c-2.8,2.8-4.9,5.9-6.5,9.2L228.7,452.2z M315.5,674.1H309v-6.5c-0.2-27.8,9.7-55,27.6-76.1l55.1,55.1
					C370.5,664.3,343.2,674.3,315.5,674.1z M493.1,700.8c-4.3,4.3-11.4,4.3-15.7,0L282.2,505.7c-4.3-4.3-4.3-11.4,0-15.7L384,388.1
					c28.5-28.5,61.9-50.6,98-65.8l35.6,35.6c4.3,4.3,11.4,4.3,15.7,0s4.3-11.4,0-15.7l-28.5-28.5c8.3-2.7,16.6-5.1,25.1-7.1
					L676.5,453c-13,54.4-40.8,105.2-81.6,146L493.1,700.8z M530.8,754.3L499.6,723c3.3-1.6,6.5-3.8,9.2-6.5l91.7-91.7
					c7.7,28.8-0.3,60.1-21.9,81.7L530.8,754.3z"/>
			</g>
		</g>
		<g>
			<g>
				<path class="st3" d="M565.2,378.6c0-2.9-1.2-5.8-3.3-7.9s-4.9-3.3-7.9-3.3c-2.9,0-5.8,1.2-7.9,3.3c-2.1,2.1-3.3,4.9-3.3,7.9
					s1.2,5.8,3.3,7.9s4.9,3.3,7.9,3.3c2.9,0,5.8-1.2,7.9-3.3C564,384.4,565.2,381.5,565.2,378.6z"/>
			</g>
		</g>
		<g>
			<g>
				<path class="st3" d="M267.5,564.5c-4.3-4.3-11.4-4.3-15.7,0l-24.2,24.2c-4.3,4.3-4.3,11.4,0,15.7s11.4,4.3,15.7,0l24.2-24.2
					C271.8,575.9,271.8,568.8,267.5,564.5z"/>
			</g>
		</g>
		<g>
			<g>
				<path class="st3" d="M384.6,760.6c0-2.9-1.2-5.8-3.3-7.9c-2.1-2.1-4.9-3.3-7.9-3.3s-5.8,1.2-7.9,3.3s-3.3,4.9-3.3,7.9
					c0,2.9,1.2,5.8,3.3,7.9c2.1,2.1,4.9,3.3,7.9,3.3c2.9,0,5.8-1.2,7.9-3.3C383.4,766.4,384.6,763.5,384.6,760.6z"/>
			</g>
		</g>
	</g>
</g>
</svg>
