<?xml version="1.0" encoding="utf-8"?>
<!-- Generator: Adobe Illustrator 28.0.0, SVG Export Plug-In . SVG Version: 6.00 Build 0)  -->
<svg version="1.1" xmlns="http://www.w3.org/2000/svg" xmlns:xlink="http://www.w3.org/1999/xlink" x="0px" y="0px"
	 viewBox="0 0 983 983" style="enable-background:new 0 0 983 983;" xml:space="preserve">
<style type="text/css">
	.st0{fill:#282C35;}
	.st1{clip-path:url(#SVGID_00000127029696990266210560000013383562347324925862_);}
	.st2{fill:none;stroke:#60ABE8;stroke-width:3.649;stroke-miterlimit:10;}
	.st3{fill:#DFB46E;stroke:#282C35;stroke-width:98.7445;stroke-miterlimit:10;}
	.st4{fill:#DFB46E;}
</style>
<g id="Layer_1">
	<g>
		<g>
			<circle class="st0" cx="491.5" cy="491.5" r="470"/>
		</g>
		<g>
			<defs>
				<circle id="SVGID_1_" cx="495.2" cy="491.5" r="424"/>
			</defs>
			<clipPath id="SVGID_00000117675946863807918170000016304482036724625330_">
				<use xlink:href="#SVGID_1_"  style="overflow:visible;"/>
			</clipPath>
			<g style="clip-path:url(#SVGID_00000117675946863807918170000016304482036724625330_);">
				<line class="st2" x1="1050.9" y1="-927" x2="-696.9" y2="820.9"/>
				<line class="st2" x1="1067.3" y1="-910.6" x2="-680.5" y2="837.3"/>
				<line class="st2" x1="1083.7" y1="-894.1" x2="-664.1" y2="853.7"/>
				<line class="st2" x1="1100.2" y1="-877.7" x2="-647.7" y2="870.1"/>
				<line class="st2" x1="1116.6" y1="-861.3" x2="-631.3" y2="886.6"/>
				<line class="st2" x1="1133" y1="-844.9" x2="-614.8" y2="903"/>
				<line class="st2" x1="1149.4" y1="-828.4" x2="-598.4" y2="919.4"/>
				<line class="st2" x1="1165.8" y1="-812" x2="-582" y2="935.8"/>
				<line class="st2" x1="1182.3" y1="-795.6" x2="-565.6" y2="952.2"/>
				<line class="st2" x1="1198.7" y1="-779.2" x2="-549.2" y2="968.7"/>
				<line class="st2" x1="1215.1" y1="-762.8" x2="-532.7" y2="985.1"/>
				<line class="st2" x1="1231.5" y1="-746.3" x2="-516.3" y2="1001.5"/>
				<line class="st2" x1="1247.9" y1="-729.9" x2="-499.9" y2="1017.9"/>
				<line class="st2" x1="1264.4" y1="-713.5" x2="-483.5" y2="1034.3"/>
				<line class="st2" x1="1280.8" y1="-697.1" x2="-467.1" y2="1050.8"/>
				<line class="st2" x1="1297.2" y1="-680.7" x2="-450.6" y2="1067.2"/>
				<line class="st2" x1="1313.6" y1="-664.2" x2="-434.2" y2="1083.6"/>
				<line class="st2" x1="1330.1" y1="-647.8" x2="-417.8" y2="1100"/>
				<line class="st2" x1="1346.5" y1="-631.4" x2="-401.4" y2="1116.4"/>
				<line class="st2" x1="1362.9" y1="-615" x2="-385" y2="1132.9"/>
				<line class="st2" x1="1379.3" y1="-598.6" x2="-368.5" y2="1149.3"/>
				<line class="st2" x1="1395.7" y1="-582.1" x2="-352.1" y2="1165.7"/>
				<line class="st2" x1="1412.2" y1="-565.7" x2="-335.7" y2="1182.1"/>
				<line class="st2" x1="1428.6" y1="-549.3" x2="-319.3" y2="1198.5"/>
				<line class="st2" x1="1445" y1="-532.9" x2="-302.9" y2="1215"/>
				<line class="st2" x1="1461.4" y1="-516.5" x2="-286.4" y2="1231.4"/>
				<line class="st2" x1="1477.8" y1="-500" x2="-270" y2="1247.8"/>
				<line class="st2" x1="1494.3" y1="-483.6" x2="-253.6" y2="1264.2"/>
				<line class="st2" x1="1510.7" y1="-467.2" x2="-237.2" y2="1280.6"/>
				<line class="st2" x1="1527.1" y1="-450.8" x2="-220.8" y2="1297.1"/>
				<line class="st2" x1="1543.5" y1="-434.4" x2="-204.3" y2="1313.5"/>
				<line class="st2" x1="1559.9" y1="-417.9" x2="-187.9" y2="1329.9"/>
				<line class="st2" x1="1576.4" y1="-401.5" x2="-171.5" y2="1346.3"/>
				<line class="st2" x1="1592.8" y1="-385.1" x2="-155.1" y2="1362.7"/>
				<line class="st2" x1="1609.2" y1="-368.7" x2="-138.7" y2="1379.2"/>
				<line class="st2" x1="1625.6" y1="-352.3" x2="-122.2" y2="1395.6"/>
				<line class="st2" x1="1642" y1="-335.8" x2="-105.8" y2="1412"/>
				<line class="st2" x1="1658.5" y1="-319.4" x2="-89.4" y2="1428.4"/>
				<line class="st2" x1="1674.9" y1="-303" x2="-73" y2="1444.9"/>
				<line class="st2" x1="1691.3" y1="-286.6" x2="-56.6" y2="1461.3"/>
				<line class="st2" x1="1707.7" y1="-270.2" x2="-40.1" y2="1477.7"/>
				<line class="st2" x1="1724.1" y1="-253.7" x2="-23.7" y2="1494.1"/>
				<line class="st2" x1="1740.6" y1="-237.3" x2="-7.3" y2="1510.5"/>
				<line class="st2" x1="1757" y1="-220.9" x2="9.1" y2="1527"/>
				<line class="st2" x1="1773.4" y1="-204.5" x2="25.5" y2="1543.4"/>
				<line class="st2" x1="1789.8" y1="-188.1" x2="42" y2="1559.8"/>
				<line class="st2" x1="1806.2" y1="-171.6" x2="58.4" y2="1576.2"/>
				<line class="st2" x1="1822.7" y1="-155.2" x2="74.8" y2="1592.6"/>
				<line class="st2" x1="1839.1" y1="-138.8" x2="91.2" y2="1609.1"/>
				<line class="st2" x1="1855.5" y1="-122.4" x2="107.7" y2="1625.5"/>
				<line class="st2" x1="1871.9" y1="-106" x2="124.1" y2="1641.9"/>
				<line class="st2" x1="1888.3" y1="-89.5" x2="140.5" y2="1658.3"/>
				<line class="st2" x1="1904.8" y1="-73.1" x2="156.9" y2="1674.7"/>
				<line class="st2" x1="1921.2" y1="-56.7" x2="173.3" y2="1691.2"/>
			</g>
		</g>
	</g>
</g>
<g id="Capa_1">
	<g>
		<path class="st0" d="M606.8,483.5c0,63.7-51.6,180.2-115.3,180.2S376.2,547.2,376.2,483.5s51.6-115.3,115.3-115.3
			S606.8,419.9,606.8,483.5z"/>
		<g>
			<g>
				<g>
					<path class="st3" d="M492,298.6c-91.8,0-166.7,75-166.7,166.7c0,48,21,94.2,56.4,125.3c26.4,26.4,24,82.8,23.4,83.4
						c0,3,0.6,5.4,3,7.8c1.8,1.8,4.8,3,7.2,3h152.9c3,0,5.4-1.2,7.2-3c1.8-1.8,3-4.8,3-7.8c0-0.6-3-57,23.4-83.4
						c0.6-0.6,1.2-1.2,1.8-1.8c34.8-31.8,55.2-76.8,55.2-123.5C658.7,373.6,583.8,298.6,492,298.6z M588,575.1
						c-0.6,0.6-1.8,1.8-1.8,2.4c-23.4,25.2-27.6,66.6-28.2,86.4H425.4c-0.6-19.8-4.8-63-30-88.8c-31.8-27.6-50.4-67.8-50.4-110.3
						c0-81,65.4-146.3,146.3-146.3s146.3,65.4,146.3,146.3C637.7,507.3,619.7,547.5,588,575.1z"/>
					<path class="st3" d="M491.4,341.2c-5.4,0-10.2,4.8-10.2,10.2s4.8,10.2,10.2,10.2c60.6,0,109.1,49.2,109.1,109.1
						c0,5.4,4.8,10.2,10.2,10.2c5.4,0,10.2-4.8,10.2-10.2C621.5,399.4,563.4,341.2,491.4,341.2z"/>
					<path class="st3" d="M558,696.2H424.8c-13.8,0-25.2,11.4-25.2,25.2c0,13.8,11.4,25.2,25.2,25.2h132.5
						c14.4-0.6,25.8-11.4,25.8-25.2C583.2,707.6,571.8,696.2,558,696.2z M558,725.6H424.8c-2.4,0-4.8-1.8-4.8-4.8
						c0-3,1.8-4.8,4.8-4.8h132.5c2.4,0,4.8,1.8,4.8,4.8C562.2,723.8,560.4,725.6,558,725.6z"/>
					<path class="st3" d="M538.2,756.8h-93.6c-13.8,0-25.2,11.4-25.2,25.2s11.4,25.2,25.2,25.2h93.6c13.8,0,25.2-11.4,25.2-25.2
						C563.4,767.6,552,756.8,538.2,756.8z M538.2,786.2h-93.6c-2.4,0-4.8-1.8-4.8-4.8c0-3,1.8-4.8,4.8-4.8h93.6
						c2.4,0,4.8,1.8,4.8,4.8C543,784.4,540.6,786.2,538.2,786.2z"/>
					<path class="st3" d="M491.4,248.8c6,0,10.2-4.8,10.2-10.2v-69.6c0-5.4-4.8-10.2-10.2-10.2c-5.4,0-10.2,4.8-10.2,10.2v69.6
						C481.2,244,486,248.8,491.4,248.8z"/>
					<path class="st3" d="M661.1,210.5c-4.8-3.6-10.8-1.8-13.8,2.4l-38.4,57.6c-3.6,4.8-2.4,11.4,2.4,14.4c1.8,1.2,3.6,1.8,5.4,1.8
						c3.6,0,6.6-1.8,8.4-4.8l38.4-57.6C667.1,220.1,665.9,213.5,661.1,210.5z"/>
					<path class="st3" d="M369.7,284.2c1.8,0,3.6-0.6,5.4-1.8c4.8-3,6-9.6,3-14.4l-37.2-58.2c-3-4.8-9.6-6-14.4-3s-6,9.6-3,14.4
						l37.2,58.2C363.1,283,366.1,284.2,369.7,284.2z"/>
					<path class="st3" d="M297.1,347.8l-60.6-33c-4.8-2.4-11.4-0.6-13.8,4.2c-3,4.8-1.2,11.4,4.2,13.8l60.6,33
						c1.8,0.6,3,1.2,4.8,1.2c3.6,0,7.2-1.8,9-5.4C303.7,356.8,301.9,350.2,297.1,347.8z"/>
					<path class="st3" d="M760.7,319c-2.4-4.8-9-6.6-13.8-4.2l-61.2,33c-4.8,2.4-6.6,9-4.2,13.8c1.8,3.6,5.4,5.4,9,5.4
						c1.8,0,3.6-0.6,4.8-1.2l61.2-33C761.3,330.4,763.1,323.8,760.7,319z"/>
				</g>
			</g>
		</g>
		<g>
			<g>
				<g>
					<path class="st4" d="M492,298.6c-91.8,0-166.7,75-166.7,166.7c0,48,21,94.2,56.4,125.3c26.4,26.4,24,82.8,23.4,83.4
						c0,3,0.6,5.4,3,7.8c1.8,1.8,4.8,3,7.2,3h152.9c3,0,5.4-1.2,7.2-3c1.8-1.8,3-4.8,3-7.8c0-0.6-3-57,23.4-83.4
						c0.6-0.6,1.2-1.2,1.8-1.8c34.8-31.8,55.2-76.8,55.2-123.5C658.7,373.6,583.8,298.6,492,298.6z M588,575.1
						c-0.6,0.6-1.8,1.8-1.8,2.4c-23.4,25.2-27.6,66.6-28.2,86.4H425.4c-0.6-19.8-4.8-63-30-88.8c-31.8-27.6-50.4-67.8-50.4-110.3
						c0-81,65.4-146.3,146.3-146.3s146.3,65.4,146.3,146.3C637.7,507.3,619.7,547.5,588,575.1z"/>
					<path class="st4" d="M491.4,341.2c-5.4,0-10.2,4.8-10.2,10.2s4.8,10.2,10.2,10.2c60.6,0,109.1,49.2,109.1,109.1
						c0,5.4,4.8,10.2,10.2,10.2c5.4,0,10.2-4.8,10.2-10.2C621.5,399.4,563.4,341.2,491.4,341.2z"/>
					<path class="st4" d="M558,696.2H424.8c-13.8,0-25.2,11.4-25.2,25.2c0,13.8,11.4,25.2,25.2,25.2h132.5
						c14.4-0.6,25.8-11.4,25.8-25.2C583.2,707.6,571.8,696.2,558,696.2z M558,725.6H424.8c-2.4,0-4.8-1.8-4.8-4.8
						c0-3,1.8-4.8,4.8-4.8h132.5c2.4,0,4.8,1.8,4.8,4.8C562.2,723.8,560.4,725.6,558,725.6z"/>
					<path class="st4" d="M538.2,756.8h-93.6c-13.8,0-25.2,11.4-25.2,25.2s11.4,25.2,25.2,25.2h93.6c13.8,0,25.2-11.4,25.2-25.2
						C563.4,767.6,552,756.8,538.2,756.8z M538.2,786.2h-93.6c-2.4,0-4.8-1.8-4.8-4.8c0-3,1.8-4.8,4.8-4.8h93.6
						c2.4,0,4.8,1.8,4.8,4.8C543,784.4,540.6,786.2,538.2,786.2z"/>
					<path class="st4" d="M491.4,248.8c6,0,10.2-4.8,10.2-10.2v-69.6c0-5.4-4.8-10.2-10.2-10.2c-5.4,0-10.2,4.8-10.2,10.2v69.6
						C481.2,244,486,248.8,491.4,248.8z"/>
					<path class="st4" d="M661.1,210.5c-4.8-3.6-10.8-1.8-13.8,2.4l-38.4,57.6c-3.6,4.8-2.4,11.4,2.4,14.4c1.8,1.2,3.6,1.8,5.4,1.8
						c3.6,0,6.6-1.8,8.4-4.8l38.4-57.6C667.1,220.1,665.9,213.5,661.1,210.5z"/>
					<path class="st4" d="M369.7,284.2c1.8,0,3.6-0.6,5.4-1.8c4.8-3,6-9.6,3-14.4l-37.2-58.2c-3-4.8-9.6-6-14.4-3s-6,9.6-3,14.4
						l37.2,58.2C363.1,283,366.1,284.2,369.7,284.2z"/>
					<path class="st4" d="M297.1,347.8l-60.6-33c-4.8-2.4-11.4-0.6-13.8,4.2c-3,4.8-1.2,11.4,4.2,13.8l60.6,33
						c1.8,0.6,3,1.2,4.8,1.2c3.6,0,7.2-1.8,9-5.4C303.7,356.8,301.9,350.2,297.1,347.8z"/>
					<path class="st4" d="M760.7,319c-2.4-4.8-9-6.6-13.8-4.2l-61.2,33c-4.8,2.4-6.6,9-4.2,13.8c1.8,3.6,5.4,5.4,9,5.4
						c1.8,0,3.6-0.6,4.8-1.2l61.2-33C761.3,330.4,763.1,323.8,760.7,319z"/>
				</g>
			</g>
		</g>
	</g>
</g>
</svg>
