<?xml version="1.0" encoding="utf-8"?>
<!-- Generator: Adobe Illustrator 28.0.0, SVG Export Plug-In . SVG Version: 6.00 Build 0)  -->
<svg version="1.1" xmlns="http://www.w3.org/2000/svg" xmlns:xlink="http://www.w3.org/1999/xlink" x="0px" y="0px"
	 viewBox="0 0 146.8 103.2" style="enable-background:new 0 0 146.8 103.2;" xml:space="preserve">
<style type="text/css">
	.st0{fill:#60ABE8;}
</style>
<g id="Layer_1">
</g>
<g id="Capa_1">
	<g>
		<g>
			<g>
				<path class="st0" d="M133.9,0h-121C5.8,0,0,5.8,0,12.9v77.4c0,7.1,5.8,12.9,12.9,12.9h121c7.1,0,12.9-5.7,12.9-12.9V12.9
					C146.8,5.8,141.1,0,133.9,0z M132.1,8.6c-2.6,2.6-48,47.8-49.6,49.3c-2.4,2.4-5.7,3.8-9.1,3.8c-3.4,0-6.7-1.3-9.1-3.8
					c-1.1-1-45.9-45.7-49.6-49.3H132.1z M8.6,88.6V14.7l37.2,37L8.6,88.6z M14.7,94.6l37.2-36.9l6.3,6.3c4.1,4.1,9.5,6.3,15.2,6.3
					c5.7,0,11.1-2.2,15.2-6.3l6.3-6.3l37.2,36.9H14.7z M138.2,88.6l-37.2-36.9l37.2-37V88.6z"/>
			</g>
		</g>
	</g>
</g>
</svg>
