<?xml version="1.0" encoding="UTF-8"?>
<svg xmlns="http://www.w3.org/2000/svg" xmlns:xlink="http://www.w3.org/1999/xlink" version="1.1" viewBox="0 0 1425 1367">
  <defs>
    <style>
      .cls-1, .cls-2, .cls-3, .cls-4, .cls-5, .cls-6, .cls-7, .cls-8, .cls-9, .cls-10 {
        fill: none;
      }

      .cls-2 {
        stroke: #292c35;
        stroke-width: 70px;
      }

      .cls-2, .cls-5, .cls-6, .cls-7, .cls-8, .cls-10 {
        stroke-miterlimit: 10;
      }

      .cls-11 {
        clip-path: url(#clippath-17);
      }

      .cls-12 {
        clip-path: url(#clippath-19);
      }

      .cls-13 {
        clip-path: url(#clippath-11);
      }

      .cls-14 {
        clip-path: url(#clippath-16);
      }

      .cls-15 {
        clip-path: url(#clippath-18);
      }

      .cls-16 {
        clip-path: url(#clippath-10);
      }

      .cls-17 {
        clip-path: url(#clippath-15);
      }

      .cls-18 {
        clip-path: url(#clippath-13);
      }

      .cls-19 {
        clip-path: url(#clippath-14);
      }

      .cls-20 {
        clip-path: url(#clippath-12);
      }

      .cls-21 {
        clip-path: url(#clippath-20);
      }

      .cls-22 {
        clip-path: url(#clippath-21);
      }

      .cls-23 {
        fill: #ddb26e;
      }

      .cls-24 {
        clip-path: url(#clippath-1);
      }

      .cls-25 {
        clip-path: url(#clippath-3);
      }

      .cls-26 {
        clip-path: url(#clippath-2);
      }

      .cls-27 {
        clip-path: url(#clippath-7);
      }

      .cls-28 {
        clip-path: url(#clippath-6);
      }

      .cls-29 {
        clip-path: url(#clippath-8);
      }

      .cls-30 {
        clip-path: url(#clippath-5);
      }

      .cls-31, .cls-32 {
        fill: #fff;
      }

      .cls-3, .cls-4, .cls-32, .cls-7, .cls-8, .cls-9, .cls-10 {
        stroke: #000;
      }

      .cls-3, .cls-4, .cls-32, .cls-9 {
        stroke-linejoin: round;
      }

      .cls-3, .cls-32 {
        stroke-width: 4.3px;
      }

      .cls-4 {
        stroke-width: 4.3px;
      }

      .cls-5 {
        stroke-width: 5.2px;
      }

      .cls-5, .cls-6 {
        stroke: #46a9ec;
      }

      .cls-6 {
        stroke-width: 3.8px;
      }

      .cls-33 {
        fill: #292c35;
      }

      .cls-7, .cls-9, .cls-10 {
        stroke-width: 5px;
      }

      .cls-8 {
        stroke-width: 4.6px;
      }

      .cls-9, .cls-34 {
        display: none;
      }

      .cls-9, .cls-10 {
        stroke-linecap: round;
      }

      .cls-35 {
        fill: #282c35;
      }

      .cls-36 {
        clip-path: url(#clippath);
      }
    </style>
    <clipPath id="clippath">
      <circle class="cls-1" cx="712.5" cy="683.5" r="586.3"/>
    </clipPath>
    <clipPath id="clippath-1">
      <circle class="cls-1" cx="712.5" cy="685.2" r="590.6"/>
    </clipPath>
    <clipPath id="clippath-2">
      <circle class="cls-1" cx="716.9" cy="683.5" r="550.7"/>
    </clipPath>
    <clipPath id="clippath-3">
      <circle class="cls-1" cx="716.9" cy="683.5" r="550.7"/>
    </clipPath>
    <clipPath id="clippath-5">
      <circle class="cls-1" cx="716.9" cy="683.5" r="550.7"/>
    </clipPath>
    <clipPath id="clippath-6">
      <circle class="cls-1" cx="716.9" cy="683.5" r="550.7"/>
    </clipPath>
    <clipPath id="clippath-7">
      <circle class="cls-1" cx="716.9" cy="683.5" r="550.7"/>
    </clipPath>
    <clipPath id="clippath-8">
      <circle class="cls-1" cx="716.9" cy="683.5" r="550.7"/>
    </clipPath>
    <clipPath id="clippath-10">
      <circle class="cls-1" cx="712.5" cy="683.5" r="586.3"/>
    </clipPath>
    <clipPath id="clippath-11">
      <circle class="cls-1" cx="716.9" cy="801.8" r="550.7"/>
    </clipPath>
    <clipPath id="clippath-12">
      <circle class="cls-1" cx="716.9" cy="801.8" r="550.7"/>
    </clipPath>
    <clipPath id="clippath-13">
      <circle class="cls-1" cx="716.9" cy="801.8" r="550.7"/>
    </clipPath>
    <clipPath id="clippath-14">
      <circle class="cls-1" cx="716.9" cy="801.8" r="550.7"/>
    </clipPath>
    <clipPath id="clippath-15">
      <circle class="cls-1" cx="716.9" cy="801.8" r="550.7"/>
    </clipPath>
    <clipPath id="clippath-16">
      <circle class="cls-1" cx="716.9" cy="801.8" r="550.7"/>
    </clipPath>
    <clipPath id="clippath-17">
      <circle class="cls-1" cx="716.9" cy="801.8" r="550.7"/>
    </clipPath>
    <clipPath id="clippath-18">
      <circle class="cls-1" cx="716.9" cy="801.8" r="550.7"/>
    </clipPath>
    <clipPath id="clippath-19">
      <circle class="cls-1" cx="716.9" cy="801.8" r="550.7"/>
    </clipPath>
    <clipPath id="clippath-20">
      <circle class="cls-1" cx="716.9" cy="801.8" r="550.7"/>
    </clipPath>
    <clipPath id="clippath-21">
      <circle class="cls-1" cx="716.9" cy="801.8" r="550.7"/>
    </clipPath>
  </defs>
  <!-- Generator: Adobe Illustrator 28.7.1, SVG Export Plug-In . SVG Version: 1.2.0 Build 142)  -->
  <g>
    <g id="Layer_1">
      <g class="cls-34">
        <g class="cls-34">
          <path class="cls-35" d="M603.1,424.8c-10.1,0-18.4,8.2-18.4,18.4s8.2,18.4,18.4,18.4,18.4-8.2,18.4-18.4-8.3-18.4-18.4-18.4h0Z"/>
          <path class="cls-35" d="M612.9,426.9c-4.9,0-8.9,4-8.9,8.9s4,8.9,8.9,8.9,8.9-4,8.9-8.9c-.1-4.9-4-8.9-8.9-8.9h0Z"/>
          <path class="cls-35" d="M780.7,406.9c-10.1,0-18.4,8.2-18.4,18.4s8.2,18.4,18.4,18.4,18.4-8.2,18.4-18.4-8.2-18.4-18.4-18.4h0Z"/>
          <path class="cls-35" d="M787.5,409.1c-4.9,0-8.9,4-8.9,8.9s4,8.9,8.9,8.9,8.9-4,8.9-8.9-4-8.9-8.9-8.9h0Z"/>
        </g>
      </g>
      <g class="cls-34">
        <g class="cls-34">
          <circle class="cls-7" cx="787.5" cy="425.5" r="9"/>
          <circle class="cls-7" cx="604.5" cy="443.5" r="9"/>
        </g>
        <g class="cls-34">
          <circle cx="606.5" cy="448.5" r="18.5"/>
          <circle class="cls-31" cx="616.3" cy="441.1" r="9"/>
          <circle cx="785.5" cy="430.5" r="18.5"/>
          <circle class="cls-31" cx="792.3" cy="423.1" r="9"/>
        </g>
        <g class="cls-34">
          <path class="cls-10" d="M567.5,445.5c11-19,61-19,69,2"/>
          <path class="cls-10" d="M758.5,434.5c8-28,65.5-23.5,75-10"/>
        </g>
        <path class="cls-9" d="M804.5,589.5c-64,38-132,57-188,13"/>
      </g>
      <g>
        <circle class="cls-33" cx="712.5" cy="683.5" r="657.4"/>
        <g class="cls-36">
          <g class="cls-24">
            <g>
              <line class="cls-6" x1="1297.7" y1="-808.7" x2="-543.1" y2="1032.1"/>
              <line class="cls-6" x1="1315" y1="-791.4" x2="-525.8" y2="1049.4"/>
              <line class="cls-6" x1="1332.3" y1="-774.1" x2="-508.5" y2="1066.7"/>
              <line class="cls-6" x1="1349.6" y1="-756.9" x2="-491.2" y2="1084"/>
              <line class="cls-6" x1="1366.9" y1="-739.6" x2="-473.9" y2="1101.3"/>
              <line class="cls-6" x1="1384.2" y1="-722.3" x2="-456.6" y2="1118.6"/>
              <line class="cls-6" x1="1401.5" y1="-705" x2="-439.3" y2="1135.9"/>
              <line class="cls-6" x1="1418.8" y1="-687.7" x2="-422" y2="1153.1"/>
              <line class="cls-6" x1="1436.1" y1="-670.4" x2="-404.8" y2="1170.4"/>
              <line class="cls-6" x1="1453.4" y1="-653.1" x2="-387.5" y2="1187.7"/>
              <line class="cls-6" x1="1470.7" y1="-635.8" x2="-370.2" y2="1205"/>
              <line class="cls-6" x1="1487.9" y1="-618.5" x2="-352.9" y2="1222.3"/>
              <line class="cls-6" x1="1505.2" y1="-601.2" x2="-335.6" y2="1239.6"/>
              <line class="cls-6" x1="1522.5" y1="-583.9" x2="-318.3" y2="1256.9"/>
              <line class="cls-6" x1="1539.8" y1="-566.6" x2="-301" y2="1274.2"/>
              <line class="cls-6" x1="1557.1" y1="-549.3" x2="-283.7" y2="1291.5"/>
              <line class="cls-6" x1="1574.4" y1="-532" x2="-266.4" y2="1308.8"/>
              <line class="cls-6" x1="1591.7" y1="-514.7" x2="-249.1" y2="1326.1"/>
              <line class="cls-6" x1="1609" y1="-497.4" x2="-231.8" y2="1343.4"/>
              <line class="cls-6" x1="1626.3" y1="-480.2" x2="-214.5" y2="1360.7"/>
              <line class="cls-6" x1="1643.6" y1="-462.9" x2="-197.2" y2="1378"/>
              <line class="cls-6" x1="1660.9" y1="-445.6" x2="-179.9" y2="1395.3"/>
              <line class="cls-6" x1="1678.2" y1="-428.3" x2="-162.6" y2="1412.6"/>
              <line class="cls-6" x1="1695.5" y1="-411" x2="-145.3" y2="1429.8"/>
              <line class="cls-6" x1="1712.8" y1="-393.7" x2="-128.1" y2="1447.1"/>
              <line class="cls-6" x1="1730.1" y1="-376.4" x2="-110.8" y2="1464.4"/>
              <line class="cls-6" x1="1747.4" y1="-359.1" x2="-93.5" y2="1481.7"/>
              <line class="cls-6" x1="1764.6" y1="-341.8" x2="-76.2" y2="1499"/>
              <line class="cls-6" x1="1781.9" y1="-324.5" x2="-58.9" y2="1516.3"/>
              <line class="cls-6" x1="1799.2" y1="-307.2" x2="-41.6" y2="1533.6"/>
              <line class="cls-6" x1="1816.5" y1="-289.9" x2="-24.3" y2="1550.9"/>
              <line class="cls-6" x1="1833.8" y1="-272.6" x2="-7" y2="1568.2"/>
              <line class="cls-6" x1="1851.1" y1="-255.3" x2="10.3" y2="1585.5"/>
              <line class="cls-6" x1="1868.4" y1="-238" x2="27.6" y2="1602.8"/>
              <line class="cls-6" x1="1885.7" y1="-220.7" x2="44.9" y2="1620.1"/>
              <line class="cls-6" x1="1903" y1="-203.5" x2="62.2" y2="1637.4"/>
              <line class="cls-6" x1="1920.3" y1="-186.2" x2="79.5" y2="1654.7"/>
              <line class="cls-6" x1="1937.6" y1="-168.9" x2="96.8" y2="1672"/>
              <line class="cls-6" x1="1954.9" y1="-151.6" x2="114.1" y2="1689.3"/>
              <line class="cls-6" x1="1972.2" y1="-134.3" x2="131.4" y2="1706.5"/>
              <line class="cls-6" x1="1989.5" y1="-117" x2="148.6" y2="1723.8"/>
              <line class="cls-6" x1="2006.8" y1="-99.7" x2="165.9" y2="1741.1"/>
              <line class="cls-6" x1="2024.1" y1="-82.4" x2="183.2" y2="1758.4"/>
              <line class="cls-6" x1="2041.3" y1="-65.1" x2="200.5" y2="1775.7"/>
              <line class="cls-6" x1="2058.6" y1="-47.8" x2="217.8" y2="1793"/>
              <line class="cls-6" x1="2075.9" y1="-30.5" x2="235.1" y2="1810.3"/>
              <line class="cls-6" x1="2093.2" y1="-13.2" x2="252.4" y2="1827.6"/>
              <line class="cls-6" x1="2110.5" y1="4.1" x2="269.7" y2="1844.9"/>
              <line class="cls-6" x1="2127.8" y1="21.4" x2="287" y2="1862.2"/>
              <line class="cls-6" x1="2145.1" y1="38.7" x2="304.3" y2="1879.5"/>
              <line class="cls-6" x1="2162.4" y1="56" x2="321.6" y2="1896.8"/>
              <line class="cls-6" x1="2179.7" y1="73.2" x2="338.9" y2="1914.1"/>
              <line class="cls-6" x1="2197" y1="90.5" x2="356.2" y2="1931.4"/>
              <line class="cls-6" x1="2214.3" y1="107.8" x2="373.5" y2="1948.7"/>
            </g>
          </g>
        </g>
        <g>
          <circle class="cls-5" cx="712.5" cy="683.5" r="657.4"/>
          <g>
            <g>
              <g>
                <path class="cls-2" d="M559.4,438.1c16.2-186.3,109.2-163.8,147.1-148.4,132-53.3,234,0,220.2,158.6l17.5,44.3,6.8-2.3s17.1-21.6,21.6-24.3,11.4-5.3,13.9-3.4,6.7,6.5,6.6,14.2-1.3,79.2-1.3,79.2c0,0-4.5,41.7-15.4,44.4-10.8,2.7-15.4,14.4-15.4,14.4l-43.4,100.1-1.4,28.2-2.3,19.4,14.2,43.1s8.3,63.6-7.5,87.5c-15.8,23.9-12.8,38-27.8,57.4,0,0-45.3,62.4-87.6,65.5-42.4,3-76-18.6-94.3-44.6-18.2-26-47-78.3-49.5-93.3s-6.3-18.2-6.3-18.2l-97-204.1,2.7-93.8s2.2-11.9-1.5-14.3-21.7-14.2-24.3-24.1-11.4-24.7-6.4-43.1,2.5-10.2,2.5-10.2l21-8.9,7.2-23.3"/>
                <path class="cls-2" d="M1182.3,857.4c22,8.3,75.2,53.2,75.5,53.4-58,246.2-254.8,296.1-518.7,296.1s-409.8,21.6-506.3-144.3c-.6,0,29.7-60.4,53.5-97.1,68.9-40.9,177.3-100.8,285.7-143.3,9.2-3.6,18.3-7.1,27.5-10.4,5.6,11.6,12.7,42.4,29.5,68.9s26.7,26.4,36.1,36.1c.6,0-13.8,11.8-8.3,17.5,27.5,27.5,12.3,45.7,25.6,66,0,22.9,51.4,44.9,70.6,71.6,22.7,21.1,42.7,45.1,56,59.6,7.3-24.8,13.7-94.5,23.9-107.3,13.7-10,31.2-22.9,55-44,8.3-19.3-9.2-46.8-15.6-71.6,19.3-21.1,31.2-34.8,44.9-52.3.9-16.5-1.9-90.8-1.9-115.5,22,18.3,26.6,27.5,40.4,52.3,106.6,23.7,207.9,57.9,226.5,64.2Z"/>
              </g>
              <g>
                <path class="cls-2" d="M899.8,614.9c26.5-23.9,45.3-83.8,44.5-73.1,4.7,34,37.4,95.9,0,137.7-84.6,153.7-142.2,248-340.5,160.9-63.5-17.1-41.8-239.8-42.9-282.3,3.7-.5,3.8,104.7,15.6,81.6,6.8-18.8,17.1-9.4,37.6-11.1s48.8-22.2,70.1-25.7c110.2-21.9,129.7,105.1,215.5,12ZM789.5,658.5c-8.8,3.6-150.7,11-165.1,1.7,22.1,52.6,147,21.8,165.1-1.7Z"/>
                <path class="cls-2" d="M873.5,456.9c8.4,3.2,9.2,4.3,11.2,9.2s4.7,14.3,4.7,14.3c0,0,1.3-4.9,9-6.5s24.7-1.4,29.7-1.8.8,9.2,3.8,12.8,10,23.5,12.5,19.3,14.3-27.2,21.3-32.8c7-5.6,12.9-9.5,15.9-9.4s2.6-5.5,3-10.8,7.2-126.2-20.5-161.6c-27.7-35.4-47.4-47.2-66.5-54.1,1.6-2.9,5-9.9,4.4-18.6s-24.7-46-106.4-54.5c-81.7-8.4-109.1,2.7-146,12-36.9,9.3-75.7,50.4-75.7,50.4,0,0-18,24.6-25.4,51.3s-4.6,81.7,1.2,91.4c.9,1.7-4.3,6-4.3,6,0,0-1.4,74.3,7,85.4,8.4,11.1,6.5-19.8,7.2-24.3s9.8-59.3,11.7-65.7,15.8-46.5,23.1-52.5c7.3-6,20.3-30.6,48.8-34.7s59.6,6.4,63.5,8.1c3.8,1.7,13-5.1,20.2-7.4s49.5-15.1,74.9-12.6c25.4,2.5,56.5,7.2,73.6,22.6,17.1,15.4,42.2,41,49.3,86.9,7.1,45.9,1.1,76.6,1.1,76.6l-48.6-2.2-3.7,3.2Z"/>
                <g>
                  <path class="cls-2" d="M531.2,470.4c-21,68.8,51.3,108,119.8,79.5,91.6-85.8-61.7-114.5-119.8-79.5Z"/>
                  <path class="cls-2" d="M713.3,477.2c-12.8-4.3-18-5.1-33.4,1.7"/>
                  <path class="cls-2" d="M881.8,460.1c41.8,83.4-69.1,120.7-134.3,91.5-96.6-107.1,68.2-120.3,134.3-91.5Z"/>
                  <path class="cls-2" d="M957.1,472.1c-7.3,2.8-64.5-8.1-68.4,10.3"/>
                  <path class="cls-2" d="M964,460.1c-13-1.8-77.9-5.3-92.7-6.5"/>
                  <path class="cls-2" d="M944.3,514c-.8-32.6,55-83.9,48.4-25.2-4.3,30.7,12.1,104.4-28.7,119.8"/>
                  <path class="cls-2" d="M700.5,585c-3.5-19.2,37.1-5.4,37.6,3.4"/>
                  <path class="cls-2" d="M689.4,496.9c.8,47.1-83.3,93.2,12.8,100.1"/>
                  <path class="cls-2" d="M684.3,602.9c-21.4,3.4-49.6,23.9-70.1,25.7s-30.8-7.7-37.6,11.1c-11.8,23.1-12-82.1-15.6-81.6,1.1,42.5-20.6,265.2,42.9,282.3,198.3,87.2,255.9-7.2,340.5-160.9,37.4-41.7,4.7-103.7,0-137.7.9-10.8-18,49.1-44.5,73.1-85.8,93.1-105.4-33.9-215.5-12Z"/>
                  <path class="cls-2" d="M724.1,453.6c27.3-27.4,118.5-40.3,155.2-12.3"/>
                  <path class="cls-2" d="M670.5,460.1c-38.8-24.4-74.7-20.3-107.7-8.7"/>
                  <path class="cls-2" d="M940.5,501.2c-2.2-7.7-8.3-15.4-8.7-22.2"/>
                  <path class="cls-2" d="M984,456.7c5.5-66.1,10-181.3-73.9-213.8"/>
                  <path class="cls-2" d="M849.5,269.4c236.3-102.6-410.8-235.2-291,130.8"/>
                  <path class="cls-2" d="M926.7,448.4c13.8-158.6-88.2-211.9-220.2-158.6-37.9-15.4-130.9-37.9-147.1,148.4"/>
                  <path class="cls-2" d="M545.7,370.3c-3.9,19.3,2.7,70.6,6.5,81"/>
                  <path class="cls-2" d="M624.4,660.3c14.4,9.2,156.3,1.9,165.1-1.7-18.1,23.5-143,54.3-165.1,1.7Z"/>
                  <g>
                    <path class="cls-2" d="M758.5,482c12.9,13.5,72.7,8.6,90,.4-9.3-35.1-63.9-27.2-90-.4Z"/>
                    <path class="cls-2" d="M658.8,492.2c5.5-9.9-23.8-19-34.9-20.1-17.5,0-40.6,26.5-43.1,27.4,14,12.7,57.2,5.2,78-7.3Z"/>
                    <path class="cls-2" d="M794,461.9c-.9,2.6-11.2,15.4,7.7,29.2"/>
                    <path class="cls-2" d="M825.7,460.1c5.1,9.4,4.3,21.5-6,29.2"/>
                    <path class="cls-2" d="M616.4,473.9c-7.7,8.6-8.6,23.2,7.7,30.9"/>
                    <path class="cls-2" d="M643.8,477.3c2.4,1,6,17.2-2.6,22.3"/>
                  </g>
                  <g>
                    <path class="cls-2" d="M660.7,503.3c-2.7-14.3-63.7-21.9-81.3,6.4"/>
                    <path class="cls-2" d="M755.5,494.8c1.6-17.5,79.8-31.5,90-2.4"/>
                  </g>
                </g>
              </g>
            </g>
            <path class="cls-2" d="M580.2,895.4c-.9,10.4-1,27.2,4.6,46.8,5.8,20.3,15.5,34.8,22,43.1"/>
            <path class="cls-2" d="M928.7,989c-.4-17.8-2.6-39.8-9.2-64.1-3.5-13-7.6-24.6-11.9-34.8"/>
            <path class="cls-2" d="M572.1,822.5s-216.7,80.5-291.5,152c-9.4,8.9-34.8,62-47.8,88.1-3.9,7.9-6.7,13.3-7.5,14.3"/>
            <path class="cls-2" d="M955.3,793.6s188.1,43.1,244.9,72.4c18.4,9.5,65.1,51.4,65.1,51.4"/>
          </g>
          <g class="cls-26">
            <g class="cls-34">
              <circle cx="620.3" cy="501.8" r="17.3"/>
              <circle class="cls-31" cx="629.5" cy="495" r="8.4"/>
              <circle cx="787.1" cy="485" r="17.3"/>
              <circle class="cls-31" cx="793.5" cy="478.2" r="8.4"/>
            </g>
          </g>
          <g class="cls-25">
            <path class="cls-31" d="M599.5,701.3c5.3,10.8,14.1,43.8,29.5,68.8,10.1,16.4,25.6,25.3,36.1,36.2.6,0-13.8,11.8-8.3,17.5,27.5,27.5,12.3,45.7,25.6,66,0,22.9,51.4,44.9,70.6,71.6,22.7,21.1,42.7,45.1,56,59.6,7.3-24.8,13.7-94.5,23.9-107.3,13.7-10,31.2-22.9,55-44,8.3-19.3-9.2-46.8-15.6-71.6,19.3-21.1,31.2-34.8,44.9-52.3.9-16.5-1.9-90.8-1.9-115.5,2.7-36.7-339.2,24.7-315.9,71Z"/>
          </g>
          <g class="cls-30">
            <g class="cls-34">
              <circle class="cls-8" cx="788.4" cy="445.5" r="8.3"/>
              <circle class="cls-8" cx="620.6" cy="462" r="8.3"/>
            </g>
          </g>
          <g class="cls-28">
            <g class="cls-34">
              <circle cx="622.4" cy="466.6" r="17"/>
              <circle class="cls-31" cx="631.4" cy="459.9" r="8.2"/>
              <circle cx="786.6" cy="450.1" r="17"/>
              <circle class="cls-31" cx="792.9" cy="443.3" r="8.2"/>
            </g>
          </g>
          <g class="cls-27">
            <g class="cls-34">
              <path class="cls-8" d="M586.6,463.9c10-17.5,56-17.5,63.3,1.9"/>
              <path class="cls-8" d="M761.8,453.8c7.3-25.6,60-21.6,68.8-9.2"/>
            </g>
          </g>
          <g class="cls-29">
            <path class="cls-8" d="M654.5,822.4c27.5,16.5,20.5,80.9,42.2,92.6,45.8,24.8,112.8,109.1,112.8,109.1"/>
          </g>
          <g class="cls-16">
            <g>
              <g>
                <g class="cls-13">
                  <path class="cls-31" d="M559.4,445.8c16.2-186.3,109.2-163.8,147.1-148.4,132-53.3,234,0,220.2,158.6l17.5,44.3,6.8-2.3s17.1-21.6,21.6-24.3,11.4-5.3,13.9-3.4,6.7,6.5,6.6,14.2-1.3,79.2-1.3,79.2c0,0-4.5,41.7-15.4,44.4s-15.4,14.4-15.4,14.4l-43.4,100.1-1.4,28.2,4,18.9,8,43.6s8.3,63.6-7.5,87.5c-15.8,23.9-12.8,38-27.8,57.4,0,0-33.1,171.8-67.3,196.9s-140.3-119.5-158.5-145.5c-18.2-26-40.2-102.1-42.7-117.1s-15-42-15-42l-51.2-187,2.7-93.8s2.2-11.9-1.5-14.3-21.7-14.2-24.3-24.1-11.4-24.7-6.4-43.1,2.5-10.2,2.5-10.2l21-8.9,7.2-23.3"/>
                  <path class="cls-23" d="M1182.3,865.1c22,8.3,75.2,53.2,75.5,53.4-58,246.2-278.9,444.3-542.8,444.3s-385.6-126.6-482.2-292.6c-.6,0,29.7-60.4,53.5-97.1,68.9-40.9,177.3-100.8,285.7-143.3,9.2-3.6,18.3-7.1,27.5-10.4,5.6,11.6,12.7,42.4,29.5,68.9s26.7,26.4,36.1,36.1c.6,0-13.8,11.8-8.3,17.5,27.5,27.5,12.3,45.7,25.6,66,0,22.9,113.4,116.7,126.6,131.2,7.3-24.8,13.7-94.5,23.9-107.3,13.7-10,31.2-22.9,55-44,8.3-19.3-9.2-46.8-15.6-71.6,19.3-21.1,31.2-34.8,44.9-52.3.9-16.5-1.9-90.8-1.9-115.5,22,18.3,26.6,27.5,40.4,52.3,106.6,23.7,207.9,57.9,226.5,64.2Z"/>
                </g>
                <g>
                  <path class="cls-23" d="M899.8,622.6c26.5-23.9,45.3-83.8,44.5-73.1,4.7,34,37.4,95.9,0,137.7-84.6,153.7-142.2,248-340.5,160.9-63.5-17.1-41.8-239.8-42.9-282.3,3.7-.5,3.8,104.7,15.6,81.6,6.8-18.8,17.1-9.4,37.6-11.1,20.5-1.7,48.8-22.2,70.1-25.7,110.2-21.9,129.7,105.1,215.5,12Z"/>
                  <path class="cls-23" d="M873.5,464.6c8.4,3.2,9.2,4.3,11.2,9.2s4.7,14.3,4.7,14.3c0,0,1.3-4.9,9-6.5s24.7-1.4,29.7-1.8.8,9.2,3.8,12.8,10,23.5,12.5,19.3,14.3-27.2,21.3-32.8c7-5.6,12.9-9.5,15.9-9.4s2.6-5.5,3-10.8,7.2-126.2-20.5-161.6c-27.7-35.4-47.4-47.2-66.5-54.1,1.6-2.9,5-9.9,4.4-18.6s-24.7-46-106.4-54.5c-81.7-8.4-109.1,2.7-146,12-36.9,9.3-75.7,50.4-75.7,50.4,0,0-18,24.6-25.4,51.3s-4.6,81.7,1.2,91.4c.9,1.7-4.3,6-4.3,6,0,0-1.4,74.3,7,85.4s6.5-19.8,7.2-24.3,9.8-59.3,11.7-65.7c1.9-6.4,15.8-46.5,23.1-52.5s20.3-30.6,48.8-34.7,59.6,6.4,63.5,8.1c3.8,1.7,13-5.1,20.2-7.4,7.3-2.3,49.5-15.1,74.9-12.6,25.4,2.5,56.5,7.2,73.6,22.6,17.1,15.4,42.2,41,49.3,86.9,7.1,45.9,1.1,76.6,1.1,76.6l-48.6-2.2-3.7,3.2Z"/>
                  <path class="cls-3" d="M531.2,478.1c-21,68.8,51.3,108,119.8,79.5,91.6-85.8-61.7-114.5-119.8-79.5Z"/>
                  <path class="cls-3" d="M713.3,484.9c-12.8-4.3-18-5.1-33.4,1.7"/>
                  <path class="cls-3" d="M881.8,467.8c41.8,83.4-69.1,120.7-134.3,91.5-96.6-107.1,68.2-120.3,134.3-91.5Z"/>
                  <path class="cls-3" d="M957.1,479.8c-7.3,2.8-64.5-8.1-68.4,10.3"/>
                  <path class="cls-3" d="M964,467.8c-13-1.8-77.9-5.3-92.7-6.5"/>
                  <path class="cls-3" d="M944.3,521.7c-.8-32.6,55-83.9,48.4-25.2-4.3,30.7,12.1,104.4-28.7,119.8"/>
                  <path class="cls-3" d="M700.5,592.7c-3.5-19.2,37.1-5.4,37.6,3.4"/>
                  <path class="cls-3" d="M689.4,504.6c.8,47.1-83.3,93.2,12.8,100.1"/>
                  <path class="cls-3" d="M684.3,610.7c-21.4,3.4-49.6,23.9-70.1,25.7-20.5,1.7-30.8-7.7-37.6,11.1-11.8,23.1-12-82.1-15.6-81.6,1.1,42.5-20.6,265.2,42.9,282.3,198.3,87.2,255.9-7.2,340.5-160.9,37.4-41.7,4.7-103.7,0-137.7.9-10.8-18,49.1-44.5,73.1-85.8,93.1-105.4-33.9-215.5-12Z"/>
                  <path class="cls-3" d="M724.1,461.3c27.3-27.4,118.5-40.3,155.2-12.3"/>
                  <path class="cls-3" d="M670.5,467.8c-38.8-24.4-74.7-20.3-107.7-8.7"/>
                  <path class="cls-3" d="M940.5,508.9c-2.2-7.7-8.3-15.4-8.7-22.2"/>
                  <path class="cls-3" d="M984,464.4c5.5-66.1,10-181.3-73.9-213.8"/>
                  <path class="cls-3" d="M849.5,277.2c236.3-102.6-410.8-235.2-291,130.8"/>
                  <path class="cls-3" d="M926.7,456.1c13.8-158.6-88.2-211.9-220.2-158.6-37.9-15.4-130.9-37.9-147.1,148.4"/>
                  <path class="cls-3" d="M545.7,378c-3.9,19.3,2.7,70.6,6.5,81"/>
                  <path class="cls-32" d="M624.4,676c14.4,9.2,156.3,1.9,165.1-1.7-18.1,23.5-143,54.3-165.1,1.7Z"/>
                  <g>
                    <path class="cls-3" d="M758.5,489.7c12.9,13.5,72.7,8.6,90,.4-9.3-35.1-63.9-27.2-90-.4Z"/>
                    <path class="cls-3" d="M658.8,499.9c5.5-9.9-23.8-19-34.9-20.1-17.5,0-40.6,26.5-43.1,27.4,14,12.7,57.2,5.2,78-7.3Z"/>
                    <path class="cls-4" d="M794,469.6c-.9,2.6-11.2,15.4,7.7,29.2"/>
                    <path class="cls-4" d="M825.7,467.9c5.1,9.4,4.3,21.5-6,29.2"/>
                    <path class="cls-4" d="M616.4,481.6c-7.7,8.6-8.6,23.2,7.7,30.9"/>
                    <path class="cls-4" d="M643.8,485c2.4,1,6,17.2-2.6,22.3"/>
                  </g>
                  <g class="cls-34">
                    <path class="cls-4" d="M660.7,511c-2.7-14.3-63.7-21.9-81.3,6.4"/>
                    <path class="cls-4" d="M755.5,502.5c1.6-17.5,79.8-31.5,90-2.4"/>
                  </g>
                </g>
              </g>
              <path class="cls-33" d="M646.1,494.8c0,9.7-9.8,15.6-19.5,15.6s-13.6-5.7-13.6-15.3,2.8-14.3,12.5-14.3,20.6,4.3,20.6,14Z"/>
              <path class="cls-33" d="M827.2,479.3c0,9.7-6.8,18.1-17.5,18.3-11.7.2-17.3-7.3-17.3-16.9s3.6-12.7,16.5-12.9,13.7.5,16.5,2.2,1.9,4.6,1.9,9.4Z"/>
              <g class="cls-20">
                <path class="cls-8" d="M915.9,749.1s39.4,36.1,39.2,51.8c-.3,26.8-69.2,101.1-82.7,115.3-1,1,12.7,41.1,17,65.7,1.6,9.1-30.1,31.4-46.1,42-.8.5-13.1,7.2-15.3,18.6-8.2,41.3-26.9,142.2-35.8,218.3-6.2,52.6-4.6,93.5-4.6,93.5"/>
              </g>
              <g class="cls-18">
                <path class="cls-8" d="M618,860.7c0,27.3,36.8,52.9,46.6,64.2.3.4-9.2,8.3-11.1,21.3-5.2,36.3,3.2,105.2-17.5,105.5"/>
              </g>
              <g class="cls-19">
                <path class="cls-8" d="M683,1010.4c28.3,24.6,111.5,35.4,147.6,25.6"/>
              </g>
              <g class="cls-17">
                <path class="cls-8" d="M975.4,842.7c3.6,7.3,12.2,27.4,8.3,53.2-4.9,31.7-25.5,50.3-31.2,55"/>
              </g>
              <g class="cls-14">
                <path class="cls-8" d="M580.2,903.1c-.9,10.4-1,27.2,4.6,46.8,5.8,20.3,15.5,34.8,22,43.1"/>
              </g>
              <g class="cls-11">
                <circle class="cls-8" cx="731.5" cy="1099.4" r="14.7"/>
              </g>
              <g class="cls-15">
                <circle class="cls-8" cx="821.4" cy="1292" r="14.7"/>
              </g>
              <g class="cls-12">
                <path class="cls-8" d="M928.7,996.7c-.4-17.8-2.6-39.8-9.2-64.1-3.5-13-7.6-24.6-11.9-34.8"/>
              </g>
              <g class="cls-21">
                <path class="cls-8" d="M572.1,830.2s-216.7,80.5-291.5,152c-9.4,8.9-34.8,62-47.8,88.1-3.9,7.9-6.7,13.3-7.5,14.3"/>
              </g>
              <g class="cls-22">
                <path class="cls-8" d="M955.3,801.3s188.1,43.1,244.9,72.4c18.4,9.5,65.1,51.4,65.1,51.4"/>
              </g>
            </g>
          </g>
        </g>
      </g>
      <path class="cls-8" d="M655.5,939s9.6,12.9,13.9,19.8,8.3,29.3,9.2,38,8.2,27.3,20.4,38.2c5.2,4.6,26.8,23.5,49.6,49s60.5,55.2,60.5,55.2"/>
    </g>
  </g>
</svg>