<?xml version="1.0" encoding="utf-8"?>
<!-- Generator: Adobe Illustrator 28.0.0, SVG Export Plug-In . SVG Version: 6.00 Build 0)  -->
<svg version="1.1" xmlns="http://www.w3.org/2000/svg" xmlns:xlink="http://www.w3.org/1999/xlink" x="0px" y="0px"
	 viewBox="0 0 1425 1367" style="enable-background:new 0 0 1425 1367;" xml:space="preserve">
<style type="text/css">
	.st0{display:none;}
	.st1{fill:#292C35;}
	.st2{fill:none;stroke:#60ABE8;stroke-width:5.2381;stroke-miterlimit:10;}
	.st3{clip-path:url(#SVGID_00000168816463645004222550000011195172609939444129_);}
	.st4{clip-path:url(#SVGID_00000070116493653600692560000002532675154518805669_);}
	.st5{fill:none;stroke:#60ABE8;stroke-width:3.8431;stroke-miterlimit:10;}
	.st6{fill:#282C35;}
	.st7{fill:none;stroke:#282C35;stroke-width:45.2141;stroke-miterlimit:10;}
	.st8{display:inline;}
	.st9{display:inline;fill:#FFFFFF;}
	.st10{clip-path:url(#SVGID_00000168816463645004222550000011195172609939444129_);fill:#FFFFFF;}
	.st11{clip-path:url(#SVGID_00000168816463645004222550000011195172609939444129_);fill:#DDB26E;}
	
		.st12{clip-path:url(#SVGID_00000168816463645004222550000011195172609939444129_);fill:none;stroke:#000000;stroke-width:4.8821;stroke-miterlimit:10;}
	.st13{display:none;clip-path:url(#SVGID_00000168816463645004222550000011195172609939444129_);}
	.st14{display:inline;fill:none;stroke:#000000;stroke-width:4.8821;stroke-miterlimit:10;}
	.st15{fill:none;stroke:#000000;stroke-width:4.8821;stroke-miterlimit:10;}
	
		.st16{clip-path:url(#SVGID_00000168816463645004222550000011195172609939444129_);fill:none;stroke:#000000;stroke-width:4.8015;stroke-miterlimit:10;}
	
		.st17{clip-path:url(#SVGID_00000168816463645004222550000011195172609939444129_);fill:none;stroke:#000000;stroke-width:5;stroke-linejoin:round;stroke-miterlimit:10;}
	.st18{display:inline;fill:none;stroke:#000000;stroke-width:5;stroke-miterlimit:10;}
	.st19{display:inline;fill:none;stroke:#000000;stroke-width:5;stroke-linecap:round;stroke-miterlimit:10;}
	.st20{display:none;fill:none;stroke:#000000;stroke-width:5;stroke-linecap:round;stroke-linejoin:round;stroke-miterlimit:10;}
</style>
<g id="Layer_2" class="st0">
</g>
<g id="Layer_1" class="st0">
</g>
<g id="Layer_3">
	<g>
		<circle class="st1" cx="705.9" cy="683" r="657.4"/>
		<circle class="st2" cx="705.9" cy="683" r="657.4"/>
		<g>
			<g>
				<defs>
					<circle id="SVGID_1_" cx="705.9" cy="681.3" r="586.3"/>
				</defs>
				<clipPath id="SVGID_00000087395624964883841010000010376537964296961470_">
					<use xlink:href="#SVGID_1_"  style="overflow:visible;"/>
				</clipPath>
				<g style="clip-path:url(#SVGID_00000087395624964883841010000010376537964296961470_);">
					<defs>
						<circle id="SVGID_00000113337706258109045680000018241274224765604264_" cx="705.9" cy="683" r="590.6"/>
					</defs>
					<clipPath id="SVGID_00000035522255103554184690000010427715237422795424_">
						<use xlink:href="#SVGID_00000113337706258109045680000018241274224765604264_"  style="overflow:visible;"/>
					</clipPath>
					<g style="clip-path:url(#SVGID_00000035522255103554184690000010427715237422795424_);">
						<line class="st5" x1="1291.1" y1="-810.9" x2="-549.7" y2="1029.9"/>
						<line class="st5" x1="1308.4" y1="-793.6" x2="-532.4" y2="1047.2"/>
						<line class="st5" x1="1325.7" y1="-776.3" x2="-515.1" y2="1064.5"/>
						<line class="st5" x1="1343" y1="-759.1" x2="-497.8" y2="1081.8"/>
						<line class="st5" x1="1360.3" y1="-741.8" x2="-480.5" y2="1099.1"/>
						<line class="st5" x1="1377.6" y1="-724.5" x2="-463.2" y2="1116.4"/>
						<line class="st5" x1="1394.9" y1="-707.2" x2="-445.9" y2="1133.7"/>
						<line class="st5" x1="1412.2" y1="-689.9" x2="-428.6" y2="1150.9"/>
						<line class="st5" x1="1429.5" y1="-672.6" x2="-411.4" y2="1168.2"/>
						<line class="st5" x1="1446.8" y1="-655.3" x2="-394.1" y2="1185.5"/>
						<line class="st5" x1="1464.1" y1="-638" x2="-376.8" y2="1202.8"/>
						<line class="st5" x1="1481.3" y1="-620.7" x2="-359.5" y2="1220.1"/>
						<line class="st5" x1="1498.6" y1="-603.4" x2="-342.2" y2="1237.4"/>
						<line class="st5" x1="1515.9" y1="-586.1" x2="-324.9" y2="1254.7"/>
						<line class="st5" x1="1533.2" y1="-568.8" x2="-307.6" y2="1272"/>
						<line class="st5" x1="1550.5" y1="-551.5" x2="-290.3" y2="1289.3"/>
						<line class="st5" x1="1567.8" y1="-534.2" x2="-273" y2="1306.6"/>
						<line class="st5" x1="1585.1" y1="-516.9" x2="-255.7" y2="1323.9"/>
						<line class="st5" x1="1602.4" y1="-499.6" x2="-238.4" y2="1341.2"/>
						<line class="st5" x1="1619.7" y1="-482.4" x2="-221.1" y2="1358.5"/>
						<line class="st5" x1="1637" y1="-465.1" x2="-203.8" y2="1375.8"/>
						<line class="st5" x1="1654.3" y1="-447.8" x2="-186.5" y2="1393.1"/>
						<line class="st5" x1="1671.6" y1="-430.5" x2="-169.2" y2="1410.4"/>
						<line class="st5" x1="1688.9" y1="-413.2" x2="-151.9" y2="1427.6"/>
						<line class="st5" x1="1706.2" y1="-395.9" x2="-134.7" y2="1444.9"/>
						<line class="st5" x1="1723.5" y1="-378.6" x2="-117.4" y2="1462.2"/>
						<line class="st5" x1="1740.8" y1="-361.3" x2="-100.1" y2="1479.5"/>
						<line class="st5" x1="1758" y1="-344" x2="-82.8" y2="1496.8"/>
						<line class="st5" x1="1775.3" y1="-326.7" x2="-65.5" y2="1514.1"/>
						<line class="st5" x1="1792.6" y1="-309.4" x2="-48.2" y2="1531.4"/>
						<line class="st5" x1="1809.9" y1="-292.1" x2="-30.9" y2="1548.7"/>
						<line class="st5" x1="1827.2" y1="-274.8" x2="-13.6" y2="1566"/>
						<line class="st5" x1="1844.5" y1="-257.5" x2="3.7" y2="1583.3"/>
						<line class="st5" x1="1861.8" y1="-240.2" x2="21" y2="1600.6"/>
						<line class="st5" x1="1879.1" y1="-222.9" x2="38.3" y2="1617.9"/>
						<line class="st5" x1="1896.4" y1="-205.7" x2="55.6" y2="1635.2"/>
						<line class="st5" x1="1913.7" y1="-188.4" x2="72.9" y2="1652.5"/>
						<line class="st5" x1="1931" y1="-171.1" x2="90.2" y2="1669.8"/>
						<line class="st5" x1="1948.3" y1="-153.8" x2="107.5" y2="1687.1"/>
						<line class="st5" x1="1965.6" y1="-136.5" x2="124.8" y2="1704.3"/>
						<line class="st5" x1="1982.9" y1="-119.2" x2="142" y2="1721.6"/>
						<line class="st5" x1="2000.2" y1="-101.9" x2="159.3" y2="1738.9"/>
						<line class="st5" x1="2017.5" y1="-84.6" x2="176.6" y2="1756.2"/>
						<line class="st5" x1="2034.7" y1="-67.3" x2="193.9" y2="1773.5"/>
						<line class="st5" x1="2052" y1="-50" x2="211.2" y2="1790.8"/>
						<line class="st5" x1="2069.3" y1="-32.7" x2="228.5" y2="1808.1"/>
						<line class="st5" x1="2086.6" y1="-15.4" x2="245.8" y2="1825.4"/>
						<line class="st5" x1="2103.9" y1="1.9" x2="263.1" y2="1842.7"/>
						<line class="st5" x1="2121.2" y1="19.2" x2="280.4" y2="1860"/>
						<line class="st5" x1="2138.5" y1="36.5" x2="297.7" y2="1877.3"/>
						<line class="st5" x1="2155.8" y1="53.8" x2="315" y2="1894.6"/>
						<line class="st5" x1="2173.1" y1="71" x2="332.3" y2="1911.9"/>
						<line class="st5" x1="2190.4" y1="88.3" x2="349.6" y2="1929.2"/>
						<line class="st5" x1="2207.7" y1="105.6" x2="366.9" y2="1946.5"/>
					</g>
				</g>
				<g style="clip-path:url(#SVGID_00000087395624964883841010000010376537964296961470_);">
					<g>
						<path class="st6" d="M797.1,268.7c5.9,0,10,1,12,1.6c2.9,3.9,11.6,17.9,25.5,59.2c11,32.8,21.5,71.4,30,102.5
							c5.3,19.6,9.9,36.6,13.9,49.3c2.5,8,4.6,13.8,6.6,18.5c1.9,4.5,3.9,8.1,6.2,11.4c2,3,4.3,5.7,6.8,8l-15.6,2.6l-1.4,36.8
							c-0.5,11.9-1.1,17.4-2.1,26.6c-1,8.7-2.2,19.6-3.7,39.2l-0.1,1.7v1.7c0,11.4,0.5,31.3,1,52.3c0.5,18.3,1,41.5,1.2,56.5
							c-10.2,12.5-20.9,24.6-37,42.2L823.6,797l6.2,23.7c2.8,10.7,6.7,20.9,10.1,29.9c1.6,4.2,3.9,10.2,5.5,15.2
							c-17.3,14.5-30.8,24.4-41.3,32.1l-5,3.7l-3.8,4.9c-8.6,11-13.6,25.7-18.2,47.7c-12.4-15.2-28.8-27.5-43.4-38.5
							c-6-4.5-15.2-11.5-20.4-16.2V895l-6.9-10.5c-0.3-1.4-0.5-4.3-0.7-6.4c-1.1-11.3-2.6-27.8-13.2-46.7c3-9.8,2.6-20.5-1.4-30.3
							l-11.5-28h-9.2c-16.8-22.6-36.8-58.3-51.4-88.2l-0.1-0.3l-0.1-0.3c-5.4-10.6-11.3-20.9-17.6-31.8
							c-23.9-41.4-48.7-84.3-42.7-149.6l0.2-2v-2.1c0-12-2.5-24.6-5.8-40.5c-4.3-21.4-9.7-47.9-8.3-74.4c1.4-27.6,10.1-50,26.5-68.6
							c2.5-2.8,11.4-10.1,39.7-16.5c23.9-5.4,52-8,79.2-10.6c38.1-3.6,70.9-6.7,93.9-17.6C784.9,270.2,789.7,268.7,797.1,268.7
							 M797.1,223.4c-12.1,0-24,2.2-32.8,6.4c-42.1,20-183.8,6.4-227.2,55.6c-68.4,77.4-23.8,179.6-23.8,213.3
							c-8.9,98.2,39.7,155.8,65,205.9c9.4,19.4,42.2,83.9,71,113.6c0,0,0,0,0,0c0.5,0-14.9,12.9-8.9,18.9
							c29.8,29.8,13.3,49.5,27.8,71.4c0,24.8,55.6,48.6,76.4,77.4c24.6,22.9,46.2,48.8,60.5,64.5c7.9-26.8,14.9-102.2,25.8-116.1
							c14.9-10.9,33.7-24.8,59.5-47.6c8.9-20.8-9.9-50.6-16.9-77.4c20.8-22.8,33.7-37.7,48.6-56.6c1-17.9-2-98.2-2-125
							c3-39.7,5-41.7,6-67.5c5.6-0.9,39.1-0.9,48.6-32.7c10.9-36.7,9.9-93.3-11.9-119.1c-2.2,0.5-9.9,2-19.8,5
							c-6,9.9-9.9,39.7-11.9,72.4c-0.3,0.7-0.6,1-1,1c-10,0-50.1-210.9-90.2-250.1C830.4,227.6,813.6,223.4,797.1,223.4L797.1,223.4
							z"/>
					</g>
					<g>
						<path class="st6" d="M558.3,592.8c-0.8,0-1.6,0.6-1.7,1.6c-0.4,10.4-0.8,27.8,0.3,34.4c1.3,7.2,16.5,25.5,25,35.3
							c0.3,0.4,0.8,0.6,1.2,0.6c1,0,2-1,1.6-2.2l-25-68.5C559.5,593.2,558.9,592.8,558.3,592.8L558.3,592.8z"/>
					</g>
					<g>
						<path class="st6" d="M654.8,769.2c-1,0-2,1-1.6,2.3c3.8,9.7,21.2,26.8,24.9,32.4c4,6.1,14.3,15.8,26.1,21.4
							c1.3,0.6,27.8,14,39.2,16.8c0.1,0,0.3,0.1,0.4,0.1c1.4,0,2.2-1.9,1-2.9L656,769.7C655.7,769.4,655.2,769.2,654.8,769.2
							L654.8,769.2z"/>
					</g>
					<g>
						<polygon class="st6" points="904.8,397.1 857.1,397.1 863.6,434.3 885.4,419.4 905.3,416.4 904.8,397.1 						"/>
					</g>
					<g>
						<path class="st6" d="M967.5,731.5c108.4,25,209.9,59.3,225.7,64.7c1.7,0.8,11.5,5.5,37.1,25.1c3.2,2.4,6.3,4.8,9.2,7.1
							c-14.7,50.8-36.5,99.1-65.1,143.9c-33,51.9-74.1,97.7-122.2,136.2c-48.5,38.9-102.5,69.1-160.8,90
							c-60.2,21.6-123.5,32.5-188.1,32.5c-50.5,0-100.6-6.7-148.8-20c-46.7-12.9-91.6-31.9-133.5-56.5
							c-75.9-44.6-140.5-106.8-187.9-180.8c9.8-18.9,25-47.2,38.7-69.4c47.1-27.7,94.2-53.6,140.2-76.9
							c51.2-26,99.7-48.1,144.6-66.1c10.7,19.6,24,42.2,38.2,61.7c-0.7,3.3-1.1,6.9-1.1,10.6c0,13.4,5.2,26,14.6,35.5
							c2.2,2.2,4.9,5.3,5.8,7.8c0.7,1.9,1,5.3,1.4,9.6c0.9,9.3,2.1,22.5,9.1,37c1.5,6.3,4,12.4,7.5,18.4c3.9,6.8,9.1,13.4,15.7,20
							c9.4,9.4,20.6,17.9,31.4,26c10.6,8,23.8,17.9,28.6,24.5l2.6,3.6l3.2,3c17.4,16.2,33.6,34.5,46.6,49.2c4,4.5,7.8,8.8,11.3,12.6
							l54,59.4l22.8-77c3.9-13.1,6.9-31.3,10.4-52.4c2.2-13.2,5.9-35.6,8.9-47.5c13.5-10.1,30.7-23.4,52.6-42.8l7.6-6.7l4-9.3
							c6.6-15.4,7.8-32.4,3.5-51.8c-2.5-11.6-6.7-22.9-10.6-32.9c12.6-14.2,22.2-25.7,32.7-39l8.9-11.2l0.8-14.3
							C967.5,750.2,967.6,742.2,967.5,731.5 M920.1,627.8c0,26.8,3,107.2,2,125c-14.9,18.9-27.8,33.7-48.6,56.6
							c6.9,26.8,25.8,56.6,16.9,77.4c-25.8,22.8-44.7,36.7-59.5,47.6c-10.9,13.9-17.9,89.3-25.8,116.1
							c-14.3-15.7-35.9-41.6-60.5-64.5c-20.8-28.8-76.4-52.6-76.4-77.4c-14.4-21.9,2-41.7-27.8-71.4c-6-6,9.4-18.9,8.9-18.9
							c0,0,0,0,0,0c-28.8-29.8-61.5-94.3-71-113.6c-126.9,46.1-258,118.2-338.9,166.2C213.6,910.6,180.9,976,181.5,976c0,0,0,0,0,0
							c104.5,179.6,299.1,300.3,521.8,300.3c285.5,0,524.6-198.3,587.3-464.6c-0.3-0.3-57.9-48.9-81.7-57.9
							c-20.2-6.9-129.8-43.8-245.1-69.5C948.9,657.5,944,647.6,920.1,627.8L920.1,627.8z"/>
					</g>
					<path class="st7" d="M509.6,473.3c-1.7,0.8-3.9,0-6.7-2.8C494,462,488,373.7,488,359.4c0-135.9,110.2-246.1,246.1-246.1
						c44.5,0,85,14.2,122.3,32.5c14.6,7.2,4.8,21.2,10.6,22.1c72.4,10.9,113.1,106.5,113.1,191.5c0,13.3-1.1,26.3-3.1,39.1
						c-1.6,10-35.8,10.9-38.6,20.5c-6.6,22.7-2,43.5-6.9,65.5c-8.9,39.7-50.6-236.2-99.2-252c-32-10.5-49.6-15.9-73.4,1
						c-24.9,17.7-3,26.8-63.5,78.4c-52.5,44.8-113.1-30.8-157.8,0c-25,17.2-23,78.2-22.8,120.2"/>
					<g>
						<path class="st7" d="M923.9,477.7c-0.2,5-0.3,9.8-0.3,14.6c0,117-16.9,195.5-214.3,252c-125.1,35.8-130-51.6-176.6-126
							c-27.6-44-17.9-167.6-16.9-251.8"/>
						<g>
							<g>
								<path class="st6" d="M782.7,418.9c-4.9,0-8.9,4-8.9,8.9s4,8.9,8.9,8.9c4.9,0,8.9-4,8.9-8.9S787.6,418.9,782.7,418.9
									L782.7,418.9z"/>
							</g>
							<g>
								<path class="st6" d="M601.1,436.8c-4.9,0-8.9,4-8.9,8.9s4,8.9,8.9,8.9c4.9,0,8.9-4,8.9-8.9S606,436.8,601.1,436.8
									L601.1,436.8z"/>
							</g>
						</g>
						<g class="st0">
							<g class="st8">
								<path class="st6" d="M603.1,424.8c-10.1,0-18.4,8.2-18.4,18.4s8.2,18.4,18.4,18.4s18.4-8.2,18.4-18.4
									S613.2,424.8,603.1,424.8L603.1,424.8z"/>
							</g>
							<g class="st8">
								<path class="st6" d="M612.9,426.9c-4.9,0-8.9,4-8.9,8.9c0,4.9,4,8.9,8.9,8.9s8.9-4,8.9-8.9
									C621.7,430.9,617.8,426.9,612.9,426.9L612.9,426.9z"/>
							</g>
							<g class="st8">
								<path class="st6" d="M780.7,406.9c-10.1,0-18.4,8.2-18.4,18.4s8.2,18.4,18.4,18.4c10.1,0,18.4-8.2,18.4-18.4
									S790.9,406.9,780.7,406.9L780.7,406.9z"/>
							</g>
							<g class="st8">
								<path class="st6" d="M787.5,409.1c-4.9,0-8.9,4-8.9,8.9c0,4.9,4,8.9,8.9,8.9c4.9,0,8.9-4,8.9-8.9
									C796.4,413.1,792.4,409.1,787.5,409.1L787.5,409.1z"/>
							</g>
						</g>
						<g>
							<path class="st7" d="M564.4,447.7c10.9-18.9,60.5-18.9,68.5,2"/>
							<path class="st7" d="M753.9,436.8c7.9-27.8,65-23.3,74.4-9.9"/>
						</g>
						<path class="st7" d="M613,603.5c55.6,43.7,123,24.8,186.5-12.9"/>
						<path class="st7" d="M720.2,397.1c40.7-38.7,85.3-19.8,128-9.9"/>
						<path class="st7" d="M650.7,415.9c-40.7-38.7-90.3-18.9-128,3"/>
						<path class="st7" d="M509.6,473.3c-1.7,0.8-3.9,0-6.7-2.8C494,462,488,373.7,488,359.4c0-135.9,110.2-246.1,246.1-246.1
							c44.5,0,85,14.2,122.3,32.5c14.6,7.2,4.8,21.2,10.6,22.1c72.4,10.9,113.1,106.5,113.1,191.5c0,13.3-1.1,26.3-3.1,39.1
							c-1.6,10-35.8,10.9-38.6,20.5c-6.6,22.7-2,43.5-6.9,65.5c-8.9,39.7-50.6-236.2-99.2-252c-32-10.5-49.6-15.9-73.4,1
							c-24.9,17.7-3,26.8-63.5,78.4c-52.5,44.8-113.1-30.8-157.8,0c-25,17.2-23,78.2-22.8,120.2"/>
						<g>
							<path class="st6" d="M857.1,397.1l-159.8,26.8c0,0,17.2,62.9,36.7,70.5c4.4,1.7,13,2.6,23.6,2.6c32.4,0,84.4-8.2,99.4-26.4
								C869.6,455.4,857.1,397.1,857.1,397.1L857.1,397.1z"/>
						</g>
						<g>
							<path class="st6" d="M666.1,423.4l-159.1,9c0,0,0.7,58.6,16,70.4c9.2,7.1,27,9.8,46.2,9.8c31.5,0,67.3-7.2,77-13.7
								C663.3,487.4,666.1,423.4,666.1,423.4L666.1,423.4z"/>
						</g>
						<line class="st7" x1="857.1" y1="397.1" x2="901.8" y2="397.1"/>
						<path class="st7" d="M863.1,436.8c0,0,15.4-14.5,21.8-16.9c5.1-1.9,21.8-1,21.8-1"/>
						<path class="st7" d="M667.6,422.9c0,0,11.5,5.1,15.9,5c3.6-0.1,11.9-4,11.9-4"/>
						<path class="st7" d="M663.6,449.7c0,0,14.8-11.6,20.8-11.9c5.7-0.3,20.8,8.9,20.8,8.9"/>
						<path class="st7" d="M692.4,551.9c-28.8,7.9-54-8.7-55.6-20.8c-1.1-8.6,11.8-14.6,21.8-25.8c13.5-15.1,24.1-42.1,14.9-94.3"/>
						<path class="st7" d="M712,536.3c6.9-7.7,19.6-2.5,19.6-2.5"/>
						<path class="st7" d="M919.6,559.8c31.8,3,48.4-16.3,51.6-23.8c25.2-58.9,4-113.1-9.9-130"/>
						<path class="st7" d="M926.6,559.8c-10.9,53.6-4,193.5-4,193.5"/>
						<path class="st7" d="M578.3,704.7c0,0-264,98.6-345,176c-10.1,9.7-37.7,67.1-51.7,95.3c-4.2,8.5-7.2,14.4-8.1,15.5"/>
						<path class="st7" d="M920.6,628.3c0,0,42.6,39,42.4,56.1c-0.3,29-74.8,109.3-89.5,124.8c-1.1,1.1,13.7,44.5,18.4,71.1
							c1.7,9.8-32.6,33.9-49.9,45.4c-0.8,0.5-14.1,7.8-16.6,20.1c-8.8,44.7-29,153.9-38.7,236.2c-6.7,56.9-5,101.2-5,101.2"/>
						<path class="st7" d="M587.2,716.6c0,29.6,50.9,89.7,61.6,102c0.3,0.4-9.9,9-11.9,23.1c-5.6,39.2,3.4,113.8-18.9,114.1"/>
						<path class="st7" d="M637.8,835.7c29.8,17.9,22.1,87.5,45.6,100.2c49.6,26.8,122.1,118.1,122.1,118.1"/>
						<path class="st7" d="M668.6,911.1c30.5,26.6,120.6,38.3,159.8,27.8"/>
						<path class="st7" d="M963.3,684.8c0,0,203.6,46.6,264.9,78.4c19.9,10.3,70.5,55.6,70.5,55.6"/>
						<path class="st7" d="M985.1,729.5c3.9,7.9,13.2,29.6,8.9,57.6c-5.3,34.4-27.7,54.4-33.7,59.5"/>
						<path class="st7" d="M557.5,795c-1,11.3-1.2,29.5,5,50.6c6.3,21.9,16.8,37.6,23.8,46.6"/>
						<g>
							<path class="st6" d="M721.2,991.5c-8.8,0-15.9,7.1-15.9,15.9c0,8.8,7.1,15.9,15.9,15.9c8.8,0,15.9-7.1,15.9-15.9
								C737.1,998.6,730,991.5,721.2,991.5L721.2,991.5z"/>
						</g>
						<g>
							<path class="st6" d="M818.4,1199.8c-8.8,0-15.9,7.1-15.9,15.9c0,8.8,7.1,15.9,15.9,15.9c8.8,0,15.9-7.1,15.9-15.9
								C834.3,1206.9,827.2,1199.8,818.4,1199.8L818.4,1199.8z"/>
						</g>
						<path class="st7" d="M934.5,896.2c-0.4-19.3-2.9-43.1-9.9-69.5c-3.8-14.1-8.3-26.7-12.9-37.7"/>
						<path class="st7" d="M953.4,474.5c11.9,17.9,7,32.5-5,35.7"/>
					</g>
				</g>
				<g style="clip-path:url(#SVGID_00000087395624964883841010000010376537964296961470_);">
					<g>
						<g class="st0">
							<circle class="st8" cx="603.1" cy="450.7" r="18.4"/>
							<circle class="st9" cx="612.9" cy="443.4" r="8.9"/>
							<circle class="st8" cx="780.7" cy="432.8" r="18.4"/>
							<circle class="st9" cx="787.5" cy="425.5" r="8.9"/>
						</g>
					</g>
				</g>
				<path style="clip-path:url(#SVGID_00000087395624964883841010000010376537964296961470_);fill:#FFFFFF;" d="M517,497.7
					c-8.8,96.7,39.1,153.3,63.9,202.6c9.3,19.1,41.5,82.5,69.8,111.8c0.6-0.1-14.7,12.6-8.8,18.6c29.3,29.3,13.1,48.7,27.3,70.3
					c0,24.4,54.7,47.8,75.2,76.2c24.2,22.5,45.5,48,59.6,63.5c7.8-26.4,14.6-100.6,25.4-114.2c14.6-10.7,33.2-24.4,58.6-46.9
					c8.8-20.5-9.8-49.8-16.6-76.2c20.5-22.5,33.2-37.1,47.8-55.7c1-17.6-2-96.7-2-123c2.9-39.1,4.9-41,5.9-66.4
					c5.5-0.9,38.5-0.8,47.8-32.2c10.7-36.1,9.8-91.8-11.7-117.2c-2.2,0.5-9.8,2-19.5,4.9c-5.9,9.8-9.8,39.1-11.7,71.3
					c-7.8,17.6-48.8-205-89.8-245.1c-16-15.6-53.7-16.6-74.2-6.8c-41.4,19.7-180.8,6.3-223.6,54.7C473.1,364,517,464.5,517,497.7z"
					/>
				<path style="clip-path:url(#SVGID_00000087395624964883841010000010376537964296961470_);fill:#DDB26E;" d="M587.3,658.7
					l-24.6-67.4c-0.6-1.7-3.1-1.3-3.1,0.5c-0.4,10.3-0.8,27.4,0.3,33.8c1.2,7.1,16.2,25.1,24.6,34.7
					C585.7,661.7,587.9,660.4,587.3,658.7z"/>
				<path style="clip-path:url(#SVGID_00000087395624964883841010000010376537964296961470_);fill:#DDB26E;" d="M743.4,835.6
					c1.7,0.4,2.7-1.7,1.4-2.8l-87.4-68.4c-1.2-1.3-3.3,0-2.7,1.7c3.7,9.6,20.9,26.4,24.5,31.9c4,6,14.1,15.6,25.7,21.1
					C706.2,819.6,732.2,832.8,743.4,835.6z"/>
				<polygon style="clip-path:url(#SVGID_00000087395624964883841010000010376537964296961470_);fill:#DDB26E;" points="
					902.6,416.7 883.1,419.6 861.6,434.3 855.3,397.7 902.2,397.7 				"/>
				<path style="clip-path:url(#SVGID_00000087395624964883841010000010376537964296961470_);fill:#DDB26E;" d="M1201.4,748.7
					c23.4,8.8,80.1,56.6,80.4,56.9c-61.7,262.1-297,473.1-577.9,473.1c-219.2,0-410.6-134.8-513.4-311.5
					c-0.6,0.1,31.6-64.3,57-103.4c79.6-47.2,208.6-118.2,333.4-163.6c9.3,19.1,41.5,82.5,69.8,111.8c0.6-0.1-14.7,12.6-8.8,18.6
					c29.3,29.3,13.1,48.7,27.3,70.3c0,24.4,54.7,47.8,75.2,76.2c24.2,22.5,45.5,48,59.6,63.5c7.8-26.4,14.6-100.6,25.4-114.2
					c14.6-10.7,33.2-24.4,58.6-46.9c8.8-20.5-9.8-49.8-16.6-76.2c20.5-22.5,33.2-37.1,47.8-55.7c1-17.6-2-96.7-2-123
					c23.4,19.5,28.3,29.3,43,55.7C1073.7,705.5,1181.6,741.9,1201.4,748.7z"/>
				<path style="clip-path:url(#SVGID_00000087395624964883841010000010376537964296961470_);fill:#DDB26E;" d="M513.3,472.6
					c-1.6,0.8-3.8,0-6.6-2.7c-8.7-8.4-14.6-95.2-14.6-109.4c0-133.7,108.4-242.2,242.2-242.2c43.8,0,83.7,14,120.4,32
					c14.4,7.1,4.7,20.8,10.5,21.7c71.3,10.7,111.3,104.8,111.3,188.4c0,13.1-1,25.9-3,38.4c-1.6,9.9-35.3,10.7-38,20.2
					c-6.5,22.3-2,42.8-6.8,64.4c-8.8,39.1-49.8-232.4-97.6-248c-31.5-10.3-48.8-15.6-72.3,1c-24.5,17.4-2.9,26.4-62.5,77.1
					c-51.7,44.1-111.3-30.3-155.3,0c-24.6,17-22.7,77-22.4,118.3"/>
				
					<path style="clip-path:url(#SVGID_00000087395624964883841010000010376537964296961470_);fill:none;stroke:#000000;stroke-width:4.8821;stroke-miterlimit:10;" d="
					M921,477c-0.2,4.9-0.3,9.7-0.3,14.4c0,115.1-16.6,192.4-210.9,248c-123.1,35.3-127.9-50.8-173.8-124
					c-27.1-43.3-17.6-164.9-16.6-247.8"/>
				<g style="display:none;clip-path:url(#SVGID_00000087395624964883841010000010376537964296961470_);">
					<circle class="st14" cx="782.1" cy="427.9" r="8.8"/>
					<circle class="st14" cx="603.4" cy="445.5" r="8.8"/>
				</g>
				<g style="display:none;clip-path:url(#SVGID_00000087395624964883841010000010376537964296961470_);">
					<circle class="st8" cx="605.3" cy="450.4" r="18.1"/>
					<circle class="st9" cx="614.9" cy="443.2" r="8.7"/>
					<circle class="st8" cx="780.1" cy="432.8" r="18.1"/>
					<circle class="st9" cx="786.8" cy="425.6" r="8.7"/>
				</g>
				<g style="display:none;clip-path:url(#SVGID_00000087395624964883841010000010376537964296961470_);">
					<path class="st14" d="M567.2,447.5c10.7-18.6,59.6-18.6,67.4,2"/>
					<path class="st14" d="M753.7,436.7c7.8-27.3,63.9-23,73.2-9.8"/>
				</g>
				<g style="clip-path:url(#SVGID_00000087395624964883841010000010376537964296961470_);">
					<path class="st15" d="M567.2,455c10.7-18.6,59.6-18.6,67.4,2"/>
					<path class="st15" d="M753.7,444.2c7.8-27.3,63.9-23,73.2-9.8"/>
				</g>
				
					<path style="clip-path:url(#SVGID_00000087395624964883841010000010376537964296961470_);fill:none;stroke:#000000;stroke-width:4.8821;stroke-miterlimit:10;" d="
					M720.5,397.7c40-38.1,84-19.5,126-9.8"/>
				
					<path style="clip-path:url(#SVGID_00000087395624964883841010000010376537964296961470_);fill:none;stroke:#000000;stroke-width:4.8821;stroke-miterlimit:10;" d="
					M652.2,416.2c-40-38.1-88.9-18.6-126,2.9"/>
				
					<path style="clip-path:url(#SVGID_00000087395624964883841010000010376537964296961470_);fill:none;stroke:#000000;stroke-width:4.8821;stroke-miterlimit:10;" d="
					M513.3,472.6c-1.6,0.8-3.8,0-6.6-2.7c-8.7-8.4-14.6-95.2-14.6-109.4c0-133.7,108.4-242.2,242.2-242.2c43.8,0,83.7,14,120.4,32
					c14.4,7.1,4.7,20.8,10.5,21.7c71.3,10.7,111.3,104.8,111.3,188.4c0,13.1-1,25.9-3,38.4c-1.6,9.9-35.3,10.7-38,20.2
					c-6.5,22.3-2,42.8-6.8,64.4c-8.8,39.1-49.8-232.4-97.6-248c-31.5-10.3-48.8-15.6-72.3,1c-24.5,17.4-2.9,26.4-62.5,77.1
					c-51.7,44.1-111.3-30.3-155.3,0c-24.6,17-22.7,77-22.4,118.3"/>
				
					<path style="clip-path:url(#SVGID_00000087395624964883841010000010376537964296961470_);fill:none;stroke:#000000;stroke-width:4.8821;stroke-miterlimit:10;" d="
					M855.3,469.9c-19.6,23.8-103.5,30.3-121.1,23.4c-19.2-7.5-36.1-69.3-36.1-69.3l157.2-26.4C855.3,397.7,867.6,455,855.3,469.9z"
					/>
				
					<path style="clip-path:url(#SVGID_00000087395624964883841010000010376537964296961470_);fill:none;stroke:#000000;stroke-width:4.8015;stroke-miterlimit:10;" d="
					M526.6,501.7c24,18.5,105.9,6.5,121.2-3.8c16.8-11.4,19.6-74.3,19.6-74.3l-156.5,8.9C510.8,432.4,511.5,490.1,526.6,501.7z"/>
				
					<line style="clip-path:url(#SVGID_00000087395624964883841010000010376537964296961470_);fill:none;stroke:#000000;stroke-width:4.8821;stroke-miterlimit:10;" x1="855.3" y1="397.7" x2="899.2" y2="397.7"/>
				
					<path style="clip-path:url(#SVGID_00000087395624964883841010000010376537964296961470_);fill:none;stroke:#000000;stroke-width:4.8821;stroke-miterlimit:10;" d="
					M861.1,436.7c0,0,15.1-14.3,21.5-16.6c5-1.9,21.5-1,21.5-1"/>
				
					<path style="clip-path:url(#SVGID_00000087395624964883841010000010376537964296961470_);fill:none;stroke:#000000;stroke-width:4.8015;stroke-miterlimit:10;" d="
					M668.8,423c0,0,11.4,5,15.6,4.9c3.6-0.1,11.7-3.9,11.7-3.9"/>
				
					<path style="clip-path:url(#SVGID_00000087395624964883841010000010376537964296961470_);fill:none;stroke:#000000;stroke-width:4.8015;stroke-miterlimit:10;" d="
					M664.9,449.4c0,0,14.6-11.4,20.5-11.7c5.6-0.3,20.5,8.8,20.5,8.8"/>
				
					<path style="clip-path:url(#SVGID_00000087395624964883841010000010376537964296961470_);fill:none;stroke:#000000;stroke-width:4.8821;stroke-miterlimit:10;" d="
					M693.2,550c-28.3,7.8-53.2-8.6-54.7-20.5c-1.1-8.5,11.6-14.4,21.5-25.4c10.5-11.7,19.2-30.7,18-63.5c-0.3-8.7-1.4-18.5-3.3-29.3
					"/>
				
					<path style="clip-path:url(#SVGID_00000087395624964883841010000010376537964296961470_);fill:none;stroke:#000000;stroke-width:4.8821;stroke-miterlimit:10;" d="
					M712.5,534.7c6.8-7.6,19.2-2.4,19.2-2.4"/>
				
					<path style="clip-path:url(#SVGID_00000087395624964883841010000010376537964296961470_);fill:none;stroke:#000000;stroke-width:4.8821;stroke-miterlimit:10;" d="
					M916.8,557.8c31.2,2.9,47.6-16.1,50.8-23.4c24.8-57.9,3.9-111.3-9.8-127.9"/>
				
					<path style="clip-path:url(#SVGID_00000087395624964883841010000010376537964296961470_);fill:none;stroke:#000000;stroke-width:4.8821;stroke-miterlimit:10;" d="
					M923.6,557.8c-10.7,52.7-3.9,190.4-3.9,190.4"/>
				
					<path style="clip-path:url(#SVGID_00000087395624964883841010000010376537964296961470_);fill:none;stroke:#000000;stroke-width:4.8821;stroke-miterlimit:10;" d="
					M580.9,700.3c0,0-259.8,97-339.5,173.1c-10,9.5-37.1,66-50.9,93.8c-4.2,8.4-7.1,14.2-8,15.2"/>
				
					<path style="clip-path:url(#SVGID_00000087395624964883841010000010376537964296961470_);fill:none;stroke:#000000;stroke-width:4.8821;stroke-miterlimit:10;" d="
					M917.8,625.2c0,0,41.9,38.4,41.7,55.2c-0.3,28.5-73.7,107.6-88.1,122.8c-1.1,1.1,13.5,43.8,18.1,69.9
					c1.7,9.7-32.1,33.4-49.1,44.7c-0.8,0.5-13.9,7.7-16.3,19.8c-8.7,44-28.6,151.4-38.1,232.4c-6.6,56-4.9,99.6-4.9,99.6"/>
				
					<path style="clip-path:url(#SVGID_00000087395624964883841010000010376537964296961470_);fill:none;stroke:#000000;stroke-width:4.8821;stroke-miterlimit:10;" d="
					M589.7,712.1c0,29.1,50.1,88.3,60.6,100.3c0.3,0.4-9.8,8.8-11.8,22.7c-5.5,38.6,3.4,112-18.6,112.3"/>
				
					<path style="clip-path:url(#SVGID_00000087395624964883841010000010376537964296961470_);fill:none;stroke:#000000;stroke-width:4.8821;stroke-miterlimit:10;" d="
					M639.5,829.2c29.3,17.6,21.8,86.1,44.9,98.6c48.8,26.4,120.1,116.2,120.1,116.2"/>
				
					<path style="clip-path:url(#SVGID_00000087395624964883841010000010376537964296961470_);fill:none;stroke:#000000;stroke-width:4.8821;stroke-miterlimit:10;" d="
					M669.8,903.4c30.1,26.2,118.7,37.7,157.2,27.3"/>
				
					<path style="clip-path:url(#SVGID_00000087395624964883841010000010376537964296961470_);fill:none;stroke:#000000;stroke-width:4.8821;stroke-miterlimit:10;" d="
					M959.8,680.8c0,0,200.3,45.9,260.7,77.1c19.6,10.1,69.3,54.7,69.3,54.7"/>
				
					<path style="clip-path:url(#SVGID_00000087395624964883841010000010376537964296961470_);fill:none;stroke:#000000;stroke-width:4.8821;stroke-miterlimit:10;" d="
					M981.2,724.8c3.8,7.8,13,29.2,8.8,56.6c-5.2,33.8-27.2,53.6-33.2,58.6"/>
				
					<path style="clip-path:url(#SVGID_00000087395624964883841010000010376537964296961470_);fill:none;stroke:#000000;stroke-width:4.8821;stroke-miterlimit:10;" d="
					M560.4,789.2c-1,11.1-1.1,29,4.9,49.8c6.2,21.6,16.5,37,23.4,45.9"/>
				
					<circle style="clip-path:url(#SVGID_00000087395624964883841010000010376537964296961470_);fill:none;stroke:#000000;stroke-width:4.8821;stroke-miterlimit:10;" cx="721.5" cy="998.2" r="15.6"/>
				
					<circle style="clip-path:url(#SVGID_00000087395624964883841010000010376537964296961470_);fill:none;stroke:#000000;stroke-width:4.8821;stroke-miterlimit:10;" cx="817.2" cy="1203.2" r="15.6"/>
				
					<path style="clip-path:url(#SVGID_00000087395624964883841010000010376537964296961470_);fill:none;stroke:#000000;stroke-width:4.8821;stroke-miterlimit:10;" d="
					M931.4,888.8c-0.4-19-2.8-42.4-9.8-68.3c-3.7-13.8-8.1-26.2-12.7-37.1"/>
				
					<path style="clip-path:url(#SVGID_00000087395624964883841010000010376537964296961470_);fill:none;stroke:#000000;stroke-width:4.8821;stroke-miterlimit:10;" d="
					M950,473.8c11.7,17.6,6.9,32-4.9,35.2"/>
				
					<path style="clip-path:url(#SVGID_00000087395624964883841010000010376537964296961470_);fill:none;stroke:#000000;stroke-width:5;stroke-linejoin:round;stroke-miterlimit:10;" d="
					M703.5,600.5c25.3-1.9,101-11,101-11c-64,38-132,57-188,13C616.5,602.5,681.7,602.1,703.5,600.5z"/>
			</g>
		</g>
	</g>
	<g>
		<g class="st0">
			<circle class="st18" cx="787.5" cy="425.5" r="9"/>
			<circle class="st18" cx="604.5" cy="443.5" r="9"/>
		</g>
		<g class="st0">
			<circle class="st8" cx="606.5" cy="448.5" r="18.5"/>
			<circle class="st9" cx="616.3" cy="441.1" r="9"/>
			<circle class="st8" cx="785.5" cy="430.5" r="18.5"/>
			<circle class="st9" cx="792.3" cy="423.1" r="9"/>
		</g>
		<g class="st0">
			<path class="st19" d="M567.5,445.5c11-19,61-19,69,2"/>
			<path class="st19" d="M758.5,434.5c8-28,65.5-23.5,75-10"/>
		</g>
		<path class="st20" d="M804.5,589.5c-64,38-132,57-188,13"/>
	</g>
</g>
</svg>
