<?xml version="1.0" encoding="utf-8"?>
<!-- Generator: Adobe Illustrator 28.0.0, SVG Export Plug-In . SVG Version: 6.00 Build 0)  -->
<svg version="1.1" xmlns="http://www.w3.org/2000/svg" xmlns:xlink="http://www.w3.org/1999/xlink" x="0px" y="0px"
	 viewBox="0 0 983 983" style="enable-background:new 0 0 983 983;" xml:space="preserve">
<style type="text/css">
	.st0{fill:#282C35;}
	.st1{clip-path:url(#SVGID_00000067213460874139808360000017222564067508570046_);}
	.st2{fill:none;stroke:#60ABE8;stroke-width:3.649;stroke-miterlimit:10;}
	.st3{fill:#DFB46E;stroke:#282C35;stroke-width:126.1207;stroke-miterlimit:10;}
	.st4{fill:#DFB46E;}
</style>
<g id="Layer_1">
	<g>
		<g>
			<circle class="st0" cx="491.5" cy="491.5" r="470"/>
		</g>
		<g>
			<defs>
				<circle id="SVGID_1_" cx="495.2" cy="491.5" r="424"/>
			</defs>
			<clipPath id="SVGID_00000075132566459578841590000001212662878279926932_">
				<use xlink:href="#SVGID_1_"  style="overflow:visible;"/>
			</clipPath>
			<g style="clip-path:url(#SVGID_00000075132566459578841590000001212662878279926932_);">
				<line class="st2" x1="1050.9" y1="-927" x2="-696.9" y2="820.9"/>
				<line class="st2" x1="1067.3" y1="-910.6" x2="-680.5" y2="837.3"/>
				<line class="st2" x1="1083.7" y1="-894.1" x2="-664.1" y2="853.7"/>
				<line class="st2" x1="1100.2" y1="-877.7" x2="-647.7" y2="870.1"/>
				<line class="st2" x1="1116.6" y1="-861.3" x2="-631.3" y2="886.6"/>
				<line class="st2" x1="1133" y1="-844.9" x2="-614.8" y2="903"/>
				<line class="st2" x1="1149.4" y1="-828.4" x2="-598.4" y2="919.4"/>
				<line class="st2" x1="1165.8" y1="-812" x2="-582" y2="935.8"/>
				<line class="st2" x1="1182.3" y1="-795.6" x2="-565.6" y2="952.2"/>
				<line class="st2" x1="1198.7" y1="-779.2" x2="-549.2" y2="968.7"/>
				<line class="st2" x1="1215.1" y1="-762.8" x2="-532.7" y2="985.1"/>
				<line class="st2" x1="1231.5" y1="-746.3" x2="-516.3" y2="1001.5"/>
				<line class="st2" x1="1247.9" y1="-729.9" x2="-499.9" y2="1017.9"/>
				<line class="st2" x1="1264.4" y1="-713.5" x2="-483.5" y2="1034.3"/>
				<line class="st2" x1="1280.8" y1="-697.1" x2="-467.1" y2="1050.8"/>
				<line class="st2" x1="1297.2" y1="-680.7" x2="-450.6" y2="1067.2"/>
				<line class="st2" x1="1313.6" y1="-664.2" x2="-434.2" y2="1083.6"/>
				<line class="st2" x1="1330.1" y1="-647.8" x2="-417.8" y2="1100"/>
				<line class="st2" x1="1346.5" y1="-631.4" x2="-401.4" y2="1116.4"/>
				<line class="st2" x1="1362.9" y1="-615" x2="-385" y2="1132.9"/>
				<line class="st2" x1="1379.3" y1="-598.6" x2="-368.5" y2="1149.3"/>
				<line class="st2" x1="1395.7" y1="-582.1" x2="-352.1" y2="1165.7"/>
				<line class="st2" x1="1412.2" y1="-565.7" x2="-335.7" y2="1182.1"/>
				<line class="st2" x1="1428.6" y1="-549.3" x2="-319.3" y2="1198.5"/>
				<line class="st2" x1="1445" y1="-532.9" x2="-302.9" y2="1215"/>
				<line class="st2" x1="1461.4" y1="-516.5" x2="-286.4" y2="1231.4"/>
				<line class="st2" x1="1477.8" y1="-500" x2="-270" y2="1247.8"/>
				<line class="st2" x1="1494.3" y1="-483.6" x2="-253.6" y2="1264.2"/>
				<line class="st2" x1="1510.7" y1="-467.2" x2="-237.2" y2="1280.6"/>
				<line class="st2" x1="1527.1" y1="-450.8" x2="-220.8" y2="1297.1"/>
				<line class="st2" x1="1543.5" y1="-434.4" x2="-204.3" y2="1313.5"/>
				<line class="st2" x1="1559.9" y1="-417.9" x2="-187.9" y2="1329.9"/>
				<line class="st2" x1="1576.4" y1="-401.5" x2="-171.5" y2="1346.3"/>
				<line class="st2" x1="1592.8" y1="-385.1" x2="-155.1" y2="1362.7"/>
				<line class="st2" x1="1609.2" y1="-368.7" x2="-138.7" y2="1379.2"/>
				<line class="st2" x1="1625.6" y1="-352.3" x2="-122.2" y2="1395.6"/>
				<line class="st2" x1="1642" y1="-335.8" x2="-105.8" y2="1412"/>
				<line class="st2" x1="1658.5" y1="-319.4" x2="-89.4" y2="1428.4"/>
				<line class="st2" x1="1674.9" y1="-303" x2="-73" y2="1444.9"/>
				<line class="st2" x1="1691.3" y1="-286.6" x2="-56.6" y2="1461.3"/>
				<line class="st2" x1="1707.7" y1="-270.2" x2="-40.1" y2="1477.7"/>
				<line class="st2" x1="1724.1" y1="-253.7" x2="-23.7" y2="1494.1"/>
				<line class="st2" x1="1740.6" y1="-237.3" x2="-7.3" y2="1510.5"/>
				<line class="st2" x1="1757" y1="-220.9" x2="9.1" y2="1527"/>
				<line class="st2" x1="1773.4" y1="-204.5" x2="25.5" y2="1543.4"/>
				<line class="st2" x1="1789.8" y1="-188.1" x2="42" y2="1559.8"/>
				<line class="st2" x1="1806.2" y1="-171.6" x2="58.4" y2="1576.2"/>
				<line class="st2" x1="1822.7" y1="-155.2" x2="74.8" y2="1592.6"/>
				<line class="st2" x1="1839.1" y1="-138.8" x2="91.2" y2="1609.1"/>
				<line class="st2" x1="1855.5" y1="-122.4" x2="107.7" y2="1625.5"/>
				<line class="st2" x1="1871.9" y1="-106" x2="124.1" y2="1641.9"/>
				<line class="st2" x1="1888.3" y1="-89.5" x2="140.5" y2="1658.3"/>
				<line class="st2" x1="1904.8" y1="-73.1" x2="156.9" y2="1674.7"/>
				<line class="st2" x1="1921.2" y1="-56.7" x2="173.3" y2="1691.2"/>
			</g>
		</g>
	</g>
	<g>
		<g>
			<path class="st3" d="M328.2,244.6c108.9,0,217.8,0,326.7,0c15.9,5.2,18.1,17.9,16.5,32.5c2.8,0,4.8,0,6.7,0c18.4,0,36.8,0,55.2,0
				c20.9,0.1,35.1,14.1,35.1,34.8c0,108,0,216-0.1,323.9c0,4.3-0.6,8.7-1.7,12.8c-5.2,18.4-20.8,29.1-41.8,29.1
				c-59.8,0-119.7,0-179.5,0c-2.2,0-4.5,0-7.1,0c2.2,15.9,4.2,30.8,6.2,46c3.2,0,5.9,0,8.6,0c8,0.2,14.1,4.2,16.3,11.8
				c4.1,14,8.2,28,11.7,42.1c2.7,10.8-5,20.7-16.1,20.7c-48.9,0.1-97.7,0.1-146.6,0c-11.4,0-19-10-16.2-21.1
				c3.5-13.8,7.5-27.4,11.5-41.1c2.4-8.2,8.2-12.3,16.9-12.4c2.7,0,5.3,0,8.2,0c2.1-15.5,4.1-30.4,6.2-46c-2.7,0-4.8,0-7,0
				c-58.8,0-117.5,0-176.3,0c-3.1,0-6.1,0-9.2-0.2c-17-1.1-31.1-12.4-36.1-28.8c-0.5-1.7-1.1-3.3-1.7-5c0-106,0-212,0-318
				c0.3-0.8,0.7-1.6,1-2.5c5.3-20.2,20.4-32,41.1-32.1c11.3,0,22.6,0,34,0c6.8,0,13.5,0,20.9,0c0-7.2,0.3-13.8-0.1-20.4
				C310.6,257.7,315.7,248.9,328.2,244.6z M568.5,325.7c-2.6,0-4.6,0-6.5,0c-20.9,0-41.8,0-62.7,0c-6.7,0-10.4-3-10.3-8.3
				c0.1-5,3.7-7.9,10.1-7.9c20,0,40,0,60,0c3,0,6,0,9,0c0.3-1.2,0.5-1.9,0.6-2.6c3.8-19.8,16-29.9,36.2-29.9c14.8,0,29.6,0,44.3,0
				c1.9,0,3.8,0,5.8,0c0.1-2.2,0.2-3.6,0.2-5.1c0.1-10.9-0.1-11.2-11.1-11.2c-63.8,0-127.6,0-191.5,0c-38.9,0-77.9,0-116.8,0
				c-7.4,0-8.3,0.9-8.3,8.5c0,6.3,0,12.6,0,18.9c0,6.9,0,13.9,0,21.3c2.7,0,4.7,0,6.7,0c40.2,0,80.4,0,120.6,0
				c1.8,0,3.7-0.2,5.4,0.2c4.2,0.9,6.7,3.6,6.7,7.9c0,4.4-2.5,7.1-6.7,7.9c-1.7,0.4-3.6,0.2-5.4,0.2c-40.2,0-80.4,0-120.6,0
				c-2.1,0-4.2,0-6.3,0c0,96,0,191.3,0,286.7c21.2,0,42,0,63.2,0c0-2.4,0-4.3,0-6.3c0-13.3-0.1-26.7,0-40
				c0.3-24.3,12.7-42.2,35.3-51.2c7-2.8,14.2-5.3,21-8.5c10-4.7,11.9-18.6,4.1-26.2c-11.7-11.3-17.8-25.2-17.9-41.5
				c-0.1-20-0.2-40,0-60c0.2-20.5,14.4-34.5,34.8-34.8c15.1-0.2,30.3-0.2,45.4,0c20.8,0.2,34.9,14.2,35.1,35.1
				c0.2,19.6,0.1,39.3,0,59c0,17.4-6.5,31.9-19.3,43.6c-1,1-2.3,2-2.7,3.2c-3.3,9.2,1.3,19,10.5,22.7c7.5,3,15.2,5.6,22.5,9
				c18.2,8.5,29.4,22.8,30.9,43c1.2,15.4,0.5,31,0.7,46.5c0,2.1,0,4.2,0,6.5c21.5,0,42.3,0,63.6,0c0-2.3,0-4.3,0-6.2
				c0-11-0.1-22,0-33c0.1-6.4,3.1-9.8,8.3-9.7c5,0.1,7.7,3.3,7.8,9.7c0.1,11.2,0,22.4,0.1,33.5c0,1.9,0.2,3.8,0.3,5.7
				c16.2,0,31.8,0,47.4,0c0-70.6,0-140.8,0-210.9c-16,0-31.6,0-47.8,0c0,2.5,0,4.6,0,6.7c0,40.2,0,80.4,0,120.6
				c0,8.8-2.5,12.8-8,12.9c-5.6,0.1-8.2-4-8.2-12.7c0-38.2,0-76.4,0-114.7c0-2-0.2-4-0.4-7.6c-6.4,6.6-11.5,11.9-16.7,17.2
				c-3.7,3.8-8.1,5.4-13.2,3.2c-5-2.2-7.2-6.2-7.1-11.7c0.1-4.6,0-9.3,0-14.3c-4.8,0-8.9,0-13,0c-22.5,0-36.5-13.9-36.5-36.4
				C568.5,352.1,568.5,339.3,568.5,325.7z M736,401.8c0,2.3,0,4.4,0,6.6c0,68,0,135.9,0,203.9c0,12.8-3.9,16.7-16.8,16.7
				c-151.8,0-303.6,0-455.4,0c-12.9,0-16.8-3.9-16.8-16.7c0-90.5,0-181,0-271.5c0-13.5,3.7-17.3,17.4-17.3c15.5,0,30.9,0,46.7,0
				c0-5.6,0-10.7,0-16.2c-17.6,0-34.9,0-52.2,0c-18.5,0-28,9.4-28,27.9c0,99.5,0,199,0,298.5c0,18.2,9.4,27.8,27.6,27.8
				c155.4,0,310.8,0,466.2,0c18.2,0,27.7-9.6,27.7-27.7c0-77,0-153.9,0-230.9c0-1.9-0.2-3.8-0.2-5.6
				C746.5,398.9,741.6,400.3,736,401.8z M263.5,612.5c16.1,0,31.7,0,47.6,0c0-91,0-181.7,0-272.3c-16.1,0-31.9,0-47.6,0
				C263.5,431.1,263.5,521.5,263.5,612.5z M574.8,612.5c0.3-0.8,0.6-1.3,0.6-1.8c0-16,0.5-32.1-0.2-48.1
				c-0.7-15.7-9.4-26.4-23.9-32.4c-4.8-2-9.8-3.6-14.5-5.8c-3.1-1.4-5.3-1.2-8.1,1.2c-18.7,15.8-46,19.2-65.8,5.3
				c-11-7.8-19.3-6.8-29.4-1.4c-0.6,0.3-1.3,0.5-2,0.8c-14.2,6-22.9,16.5-23.6,32c-0.8,15.6-0.3,31.4-0.2,47c0,1.1,1.5,3.2,2.3,3.3
				c9.8,0.2,19.7,0.1,30,0.1c0-2.7,0-4.6,0-6.6c0-5-0.1-10.1,0.1-15.1c0.2-5.3,3.8-8.9,8.4-8.7c4.4,0.2,7.5,3.5,7.7,8.7
				c0.1,2.3,0,4.7,0,7c0,4.8,0,9.5,0,14.5c23.9,0,47,0,70.7,0c0-7.3,0-14.2,0-21.2c0-4,1.5-7,5.4-8.4c5.5-2,10.5,1.8,10.7,8.4
				c0.2,7,0.1,13.9,0.1,21.2C554.1,612.5,564.5,612.5,574.8,612.5z M634.2,403.7c0.4,0.2,0.9,0.4,1.3,0.6c4.2-4.4,8.6-8.7,12.7-13.2
				c4-4.5,8.8-6.2,14.9-6.2c23.4,0.2,46.9,0.1,70.3,0.1c11.8,0,18.8-7.1,18.8-18.9c0-18,0-36,0-54.1c0-11.8-7-18.7-18.9-18.7
				c-43.3,0-86.5,0-129.8,0c-11.6,0-18.7,6.9-18.8,18.4c-0.1,18.2-0.1,36.4,0,54.6c0.1,11.8,7.1,18.6,19.1,18.7
				c5.4,0.1,10.8-0.1,16.2,0.1c8.3,0.3,13.7,5.6,14.2,13.9C634.3,400.6,634.2,402.2,634.2,403.7z M553.9,740.3
				c-41.9,0-83.2,0-124.8,0c-3.8,14-7.6,27.7-11.5,41.7c49.6,0,98.4,0,147.7,0C561.5,767.9,557.8,754.3,553.9,740.3z M450.5,426.2
				c-2.1,19.9,1.8,36.9,19.4,47.6c14.7,9,29.9,8.7,44.3-0.7c17.4-11.2,20.4-28.4,18.6-45.8c-9.5-4.9-18.2-9.3-27.7-14.2
				C489.3,422.5,470.6,426.8,450.5,426.2z M532.6,408.5c0-11.7,0.6-23.2-0.2-34.6c-0.5-7.5-8.1-13.5-15.9-13.6
				c-16.6-0.2-33.2-0.2-49.7,0c-7.9,0.1-15.5,6-16,13.5c-0.8,11.8-0.2,23.6-0.2,35.9c2,0.1,3.7,0.3,5.5,0.3
				c16.2-0.1,31.2-4.4,44.9-13.2c7.1-4.6,11.5-3.7,16.7,2.9C521.4,404.4,526,407.8,532.6,408.5z M521.8,677.9c-20.5,0-40.2,0-60.5,0
				c-2,15.2-4.1,30.2-6.1,45.5c24.5,0,48.4,0,72.8,0C525.9,708.2,523.9,693.3,521.8,677.9z M466.1,513.9c13,12.4,40.3,12.2,50.7-0.1
				c-2.5-6.9-4.9-13.4-7.4-20.3c-11.7,3.9-24.2,3.6-35.7,0.1C471,500.8,468.6,507.2,466.1,513.9z"/>
			<path class="st3" d="M352,293.2c-4.5,0-8.1-3.8-7.9-8.3c0.1-4.4,3.7-7.8,8-7.8c4.5,0,8.1,3.8,8,8.3
				C359.8,289.7,356.3,293.2,352,293.2z"/>
			<path class="st3" d="M392.4,285.2c0,4.5-3.8,8.2-8.3,8c-4.3-0.2-7.7-3.8-7.7-8.1c0-4.6,3.8-8.2,8.3-8
				C389,277.2,392.5,280.8,392.4,285.2z"/>
			<path class="st3" d="M417,277.1c4.5,0.1,8.1,3.9,7.9,8.4c-0.2,4.3-3.8,7.8-8.1,7.7c-4.5-0.1-8-3.9-7.8-8.5
				C409.1,280.4,412.7,277,417,277.1z"/>
			<path class="st3" d="M667.8,331c-17.6,0-35.3,0-52.9,0c-3.9,0-7.6-1.1-8.6-5c-0.7-2.4-0.5-6.3,1-7.8c1.9-2,5.6-3.2,8.5-3.2
				c26.8-0.2,53.6-0.1,80.5-0.1c8.1,0,16.2,0,24.3,0c7.4,0,11.1,2.7,11.1,8c0.1,5.3-3.8,8.2-11,8.2C703.1,331,685.4,331,667.8,331z"
				/>
			<path class="st3" d="M668.4,347.3c17.6,0,35.3,0,52.9,0c6.7,0,10.5,3,10.4,8.2c-0.1,5.1-3.8,8-10.6,8c-34.9,0-69.8,0-104.8,0
				c-7.1,0-11.1-3.1-11-8.3c0.1-5.1,3.9-7.9,10.7-7.9C633.5,347.2,650.9,347.3,668.4,347.3z"/>
		</g>
	</g>
	<g>
		<g>
			<path class="st4" d="M328.2,244.6c108.9,0,217.8,0,326.7,0c15.9,5.2,18.1,17.9,16.5,32.5c2.8,0,4.8,0,6.7,0c18.4,0,36.8,0,55.2,0
				c20.9,0.1,35.1,14.1,35.1,34.8c0,108,0,216-0.1,323.9c0,4.3-0.6,8.7-1.7,12.8c-5.2,18.4-20.8,29.1-41.8,29.1
				c-59.8,0-119.7,0-179.5,0c-2.2,0-4.5,0-7.1,0c2.2,15.9,4.2,30.8,6.2,46c3.2,0,5.9,0,8.6,0c8,0.2,14.1,4.2,16.3,11.8
				c4.1,14,8.2,28,11.7,42.1c2.7,10.8-5,20.7-16.1,20.7c-48.9,0.1-97.7,0.1-146.6,0c-11.4,0-19-10-16.2-21.1
				c3.5-13.8,7.5-27.4,11.5-41.1c2.4-8.2,8.2-12.3,16.9-12.4c2.7,0,5.3,0,8.2,0c2.1-15.5,4.1-30.4,6.2-46c-2.7,0-4.8,0-7,0
				c-58.8,0-117.5,0-176.3,0c-3.1,0-6.1,0-9.2-0.2c-17-1.1-31.1-12.4-36.1-28.8c-0.5-1.7-1.1-3.3-1.7-5c0-106,0-212,0-318
				c0.3-0.8,0.7-1.6,1-2.5c5.3-20.2,20.4-32,41.1-32.1c11.3,0,22.6,0,34,0c6.8,0,13.5,0,20.9,0c0-7.2,0.3-13.8-0.1-20.4
				C310.6,257.7,315.7,248.9,328.2,244.6z M568.5,325.7c-2.6,0-4.6,0-6.5,0c-20.9,0-41.8,0-62.7,0c-6.7,0-10.4-3-10.3-8.3
				c0.1-5,3.7-7.9,10.1-7.9c20,0,40,0,60,0c3,0,6,0,9,0c0.3-1.2,0.5-1.9,0.6-2.6c3.8-19.8,16-29.9,36.2-29.9c14.8,0,29.6,0,44.3,0
				c1.9,0,3.8,0,5.8,0c0.1-2.2,0.2-3.6,0.2-5.1c0.1-10.9-0.1-11.2-11.1-11.2c-63.8,0-127.6,0-191.5,0c-38.9,0-77.9,0-116.8,0
				c-7.4,0-8.3,0.9-8.3,8.5c0,6.3,0,12.6,0,18.9c0,6.9,0,13.9,0,21.3c2.7,0,4.7,0,6.7,0c40.2,0,80.4,0,120.6,0
				c1.8,0,3.7-0.2,5.4,0.2c4.2,0.9,6.7,3.6,6.7,7.9c0,4.4-2.5,7.1-6.7,7.9c-1.7,0.4-3.6,0.2-5.4,0.2c-40.2,0-80.4,0-120.6,0
				c-2.1,0-4.2,0-6.3,0c0,96,0,191.3,0,286.7c21.2,0,42,0,63.2,0c0-2.4,0-4.3,0-6.3c0-13.3-0.1-26.7,0-40
				c0.3-24.3,12.7-42.2,35.3-51.2c7-2.8,14.2-5.3,21-8.5c10-4.7,11.9-18.6,4.1-26.2c-11.7-11.3-17.8-25.2-17.9-41.5
				c-0.1-20-0.2-40,0-60c0.2-20.5,14.4-34.5,34.8-34.8c15.1-0.2,30.3-0.2,45.4,0c20.8,0.2,34.9,14.2,35.1,35.1
				c0.2,19.6,0.1,39.3,0,59c0,17.4-6.5,31.9-19.3,43.6c-1,1-2.3,2-2.7,3.2c-3.3,9.2,1.3,19,10.5,22.7c7.5,3,15.2,5.6,22.5,9
				c18.2,8.5,29.4,22.8,30.9,43c1.2,15.4,0.5,31,0.7,46.5c0,2.1,0,4.2,0,6.5c21.5,0,42.3,0,63.6,0c0-2.3,0-4.3,0-6.2
				c0-11-0.1-22,0-33c0.1-6.4,3.1-9.8,8.3-9.7c5,0.1,7.7,3.3,7.8,9.7c0.1,11.2,0,22.4,0.1,33.5c0,1.9,0.2,3.8,0.3,5.7
				c16.2,0,31.8,0,47.4,0c0-70.6,0-140.8,0-210.9c-16,0-31.6,0-47.8,0c0,2.5,0,4.6,0,6.7c0,40.2,0,80.4,0,120.6
				c0,8.8-2.5,12.8-8,12.9c-5.6,0.1-8.2-4-8.2-12.7c0-38.2,0-76.4,0-114.7c0-2-0.2-4-0.4-7.6c-6.4,6.6-11.5,11.9-16.7,17.2
				c-3.7,3.8-8.1,5.4-13.2,3.2c-5-2.2-7.2-6.2-7.1-11.7c0.1-4.6,0-9.3,0-14.3c-4.8,0-8.9,0-13,0c-22.5,0-36.5-13.9-36.5-36.4
				C568.5,352.1,568.5,339.3,568.5,325.7z M736,401.8c0,2.3,0,4.4,0,6.6c0,68,0,135.9,0,203.9c0,12.8-3.9,16.7-16.8,16.7
				c-151.8,0-303.6,0-455.4,0c-12.9,0-16.8-3.9-16.8-16.7c0-90.5,0-181,0-271.5c0-13.5,3.7-17.3,17.4-17.3c15.5,0,30.9,0,46.7,0
				c0-5.6,0-10.7,0-16.2c-17.6,0-34.9,0-52.2,0c-18.5,0-28,9.4-28,27.9c0,99.5,0,199,0,298.5c0,18.2,9.4,27.8,27.6,27.8
				c155.4,0,310.8,0,466.2,0c18.2,0,27.7-9.6,27.7-27.7c0-77,0-153.9,0-230.9c0-1.9-0.2-3.8-0.2-5.6
				C746.5,398.9,741.6,400.3,736,401.8z M263.5,612.5c16.1,0,31.7,0,47.6,0c0-91,0-181.7,0-272.3c-16.1,0-31.9,0-47.6,0
				C263.5,431.1,263.5,521.5,263.5,612.5z M574.8,612.5c0.3-0.8,0.6-1.3,0.6-1.8c0-16,0.5-32.1-0.2-48.1
				c-0.7-15.7-9.4-26.4-23.9-32.4c-4.8-2-9.8-3.6-14.5-5.8c-3.1-1.4-5.3-1.2-8.1,1.2c-18.7,15.8-46,19.2-65.8,5.3
				c-11-7.8-19.3-6.8-29.4-1.4c-0.6,0.3-1.3,0.5-2,0.8c-14.2,6-22.9,16.5-23.6,32c-0.8,15.6-0.3,31.4-0.2,47c0,1.1,1.5,3.2,2.3,3.3
				c9.8,0.2,19.7,0.1,30,0.1c0-2.7,0-4.6,0-6.6c0-5-0.1-10.1,0.1-15.1c0.2-5.3,3.8-8.9,8.4-8.7c4.4,0.2,7.5,3.5,7.7,8.7
				c0.1,2.3,0,4.7,0,7c0,4.8,0,9.5,0,14.5c23.9,0,47,0,70.7,0c0-7.3,0-14.2,0-21.2c0-4,1.5-7,5.4-8.4c5.5-2,10.5,1.8,10.7,8.4
				c0.2,7,0.1,13.9,0.1,21.2C554.1,612.5,564.5,612.5,574.8,612.5z M634.2,403.7c0.4,0.2,0.9,0.4,1.3,0.6c4.2-4.4,8.6-8.7,12.7-13.2
				c4-4.5,8.8-6.2,14.9-6.2c23.4,0.2,46.9,0.1,70.3,0.1c11.8,0,18.8-7.1,18.8-18.9c0-18,0-36,0-54.1c0-11.8-7-18.7-18.9-18.7
				c-43.3,0-86.5,0-129.8,0c-11.6,0-18.7,6.9-18.8,18.4c-0.1,18.2-0.1,36.4,0,54.6c0.1,11.8,7.1,18.6,19.1,18.7
				c5.4,0.1,10.8-0.1,16.2,0.1c8.3,0.3,13.7,5.6,14.2,13.9C634.3,400.6,634.2,402.2,634.2,403.7z M553.9,740.3
				c-41.9,0-83.2,0-124.8,0c-3.8,14-7.6,27.7-11.5,41.7c49.6,0,98.4,0,147.7,0C561.5,767.9,557.8,754.3,553.9,740.3z M450.5,426.2
				c-2.1,19.9,1.8,36.9,19.4,47.6c14.7,9,29.9,8.7,44.3-0.7c17.4-11.2,20.4-28.4,18.6-45.8c-9.5-4.9-18.2-9.3-27.7-14.2
				C489.3,422.5,470.6,426.8,450.5,426.2z M532.6,408.5c0-11.7,0.6-23.2-0.2-34.6c-0.5-7.5-8.1-13.5-15.9-13.6
				c-16.6-0.2-33.2-0.2-49.7,0c-7.9,0.1-15.5,6-16,13.5c-0.8,11.8-0.2,23.6-0.2,35.9c2,0.1,3.7,0.3,5.5,0.3
				c16.2-0.1,31.2-4.4,44.9-13.2c7.1-4.6,11.5-3.7,16.7,2.9C521.4,404.4,526,407.8,532.6,408.5z M521.8,677.9c-20.5,0-40.2,0-60.5,0
				c-2,15.2-4.1,30.2-6.1,45.5c24.5,0,48.4,0,72.8,0C525.9,708.2,523.9,693.3,521.8,677.9z M466.1,513.9c13,12.4,40.3,12.2,50.7-0.1
				c-2.5-6.9-4.9-13.4-7.4-20.3c-11.7,3.9-24.2,3.6-35.7,0.1C471,500.8,468.6,507.2,466.1,513.9z"/>
			<path class="st4" d="M352,293.2c-4.5,0-8.1-3.8-7.9-8.3c0.1-4.4,3.7-7.8,8-7.8c4.5,0,8.1,3.8,8,8.3
				C359.8,289.7,356.3,293.2,352,293.2z"/>
			<path class="st4" d="M392.4,285.2c0,4.5-3.8,8.2-8.3,8c-4.3-0.2-7.7-3.8-7.7-8.1c0-4.6,3.8-8.2,8.3-8
				C389,277.2,392.5,280.8,392.4,285.2z"/>
			<path class="st4" d="M417,277.1c4.5,0.1,8.1,3.9,7.9,8.4c-0.2,4.3-3.8,7.8-8.1,7.7c-4.5-0.1-8-3.9-7.8-8.5
				C409.1,280.4,412.7,277,417,277.1z"/>
			<path class="st4" d="M667.8,331c-17.6,0-35.3,0-52.9,0c-3.9,0-7.6-1.1-8.6-5c-0.7-2.4-0.5-6.3,1-7.8c1.9-2,5.6-3.2,8.5-3.2
				c26.8-0.2,53.6-0.1,80.5-0.1c8.1,0,16.2,0,24.3,0c7.4,0,11.1,2.7,11.1,8c0.1,5.3-3.8,8.2-11,8.2C703.1,331,685.4,331,667.8,331z"
				/>
			<path class="st4" d="M668.4,347.3c17.6,0,35.3,0,52.9,0c6.7,0,10.5,3,10.4,8.2c-0.1,5.1-3.8,8-10.6,8c-34.9,0-69.8,0-104.8,0
				c-7.1,0-11.1-3.1-11-8.3c0.1-5.1,3.9-7.9,10.7-7.9C633.5,347.2,650.9,347.3,668.4,347.3z"/>
		</g>
	</g>
</g>
<g id="Capa_1">
</g>
</svg>
